<?xml version="1.0" encoding="UTF-8"?>
<svg id="_Слой_2" data-name="Слой 2" xmlns="http://www.w3.org/2000/svg" viewBox="0 0 458.6 470.31">
  <defs>
    <style>
      .cls-1 {
        fill: none;
        stroke: #0600ff;
        stroke-miterlimit: 10;
      }

      .cls-2, .cls-3 {
        fill: #0500ff;
      }

      .cls-3, .cls-4 {
        opacity: 0;
      }
    </style>
  </defs>
  <g id="_Слой_1-2" data-name="Слой 1">
    <g>
      <g class="cls-4">
        <path class="cls-1" d="M406.34,52.43h-177.09s-177.09,0-177.1,0v365.62c11.38,0,176.79,0,176.79,0h177.41s0-182.81,0-182.81V98.14s0-45.7-.01-45.7Z"/>
      </g>
      <g class="cls-4">
        <polyline class="cls-1" points=".5 417.78 229.3 417.78 286.5 417.78 343.7 417.78 400.9 417.78 458.1 417.78"/>
      </g>
      <g class="cls-4">
        <path class="cls-1" d="M.5,469.81c0-5.32,0-58.29,0-58.29V.5c.74,0,228.8,0,228.8,0h171.6s57.2,0,57.2,0v410.64s0,58.63,0,58.66H.5Z"/>
      </g>
      <g class="cls-4">
        <polyline class="cls-1" points="406.44 .5 406.44 235.15 406.44 293.82 406.44 352.48 406.44 411.14 406.44 469.81"/>
      </g>
      <g class="cls-4">
        <polyline class="cls-1" points="52.25 .5 52.25 235.15 52.25 293.82 52.25 352.48 52.25 411.14 52.25 469.81"/>
      </g>
      <g class="cls-4">
        <polyline class="cls-1" points=".5 52.16 229.3 52.16 286.5 52.16 343.7 52.16 400.9 52.16 458.1 52.16"/>
      </g>
      <path class="cls-3" d="M52.15,120.53v25.29h-11.24c-20.7,0-31.05-10.3-31.05-30.91v-19.8H.5v-24.76h9.37v-18.2h29.71v18.2h12.31v24.76h-12.31v20.34c0,1.79.42,3.08,1.27,3.88.85.8,2.25,1.2,4.22,1.2h7.09Z"/>
      <path class="cls-3" d="M120.53.5h25.29v11.24c0,20.7-10.3,31.05-30.91,31.05h-19.8v9.37h-24.76v-9.37h-18.2V13.08h18.2V.77h24.76v12.31h20.34c1.79,0,3.08-.42,3.88-1.27.8-.85,1.2-2.25,1.2-4.22V.5Z"/>
      <path class="cls-3" d="M381.06,418.15h25.29v11.24c0,20.7-10.3,31.05-30.91,31.05h-19.8v9.37h-24.76v-9.37h-18.2v-29.71h18.2v-12.31h24.76v12.31h20.34c1.79,0,3.08-.42,3.88-1.27.8-.85,1.2-2.25,1.2-4.22v-7.09Z"/>
      <path class="cls-3" d="M406.44,349.77v-25.29s11.24,0,11.24,0c20.7,0,31.05,10.3,31.05,30.91v19.8s9.37,0,9.37,0v24.76s-9.37,0-9.37,0v18.2s-29.71,0-29.71,0v-18.2s-12.31,0-12.31,0v-24.76s12.31,0,12.31,0v-20.34c0-1.79-.42-3.08-1.27-3.88-.85-.8-2.25-1.2-4.22-1.2h-7.09Z"/>
      <g>
        <path class="cls-2" d="M403.57,161.23c-2.66-7.12-7.03-13.41-12.62-18.35-5.33-4.7-11.74-8.17-18.82-10-1.57-.4-3.17-.72-4.79-.96-2.37-.34-6.28-.43-8.67-.26-.86.06-1.92.1-3.14.07-4.63-.1-11.45-1.22-17.72-6.01-8.55-6.55-10.89-15.99-11.44-22.22-.09-.98-.13-1.88-.14-2.68-.02-1.05,0-1.92.05-2.55.05-.93.1-1.86.06-2.8-.9-25.29-22.34-45.37-48.14-44.04-24.43,1.26-43.34,21.98-43.34,46.44v47.01c0,2.3,1.56,4.3,3.8,4.85,17.23,4.26,30.14,19.98,30.67,38.89.03.42.03.83.03,1.25,0,18.49-11.82,34.14-28.1,39.4l2.22,5.11,19.92,45.75,14.37,33.02c1.44,3.31-.98,7.01-4.59,7.01h-33.3c-2.77,0-5.01,2.24-5.01,5.01v45.66c0,24.77,20.25,46.16,45.01,46.55,25.6.4,46.49-20.24,46.49-45.75v-4.42c0-4.61.97-11.84,6.02-18.45,7.45-9.72,18.64-11.43,24.62-11.58.88-.02,1.64,0,2.25.02,2.16-.05,4.32-.1,6.48-.15,2.17-.24,4.3-.63,6.38-1.16,7.08-1.83,13.5-5.3,18.82-10,9.49-8.39,15.49-20.65,15.49-34.31,0-3.95-.5-7.78-1.44-11.44-2.64-10.27-8.77-19.15-17.04-25.29-5.05-3.75-8.57-9.27-9.63-15.47-.07-.43-.14-.87-.19-1.31-.15-1.26-.2-2.49-.17-3.67.09-4.23,1.2-8.01,2.71-11.22s4.97-7.48,7.73-9.59c8.04-6.14,13.98-14.87,16.58-24.94.94-3.66,1.44-7.49,1.44-11.44,0-5.62-1.01-11-2.87-15.97Z"/>
        <path class="cls-2" d="M52.06,177.25c0,3.95.5,7.78,1.44,11.44,2.6,10.08,8.54,18.81,16.58,24.94,2.76,2.11,6.25,6.45,7.73,9.59,1.51,3.21,2.62,6.98,2.71,11.22.04,1.18-.01,2.41-.17,3.67-.05.44-.12.88-.19,1.31-1.05,6.2-4.58,11.72-9.63,15.47-8.27,6.15-14.4,15.03-17.04,25.29-.94,3.66-1.44,7.49-1.44,11.44,0,13.66,6,25.93,15.49,34.31,5.33,4.7,11.74,8.17,18.82,10,2.08.53,4.21.92,6.38,1.16,2.16.05,4.32.1,6.48.15.62-.02,1.37-.04,2.25-.02,5.97.15,17.17,1.86,24.62,11.58,5.06,6.61,6.02,13.84,6.02,18.45v4.42c0,25.51,20.89,46.15,46.49,45.75,24.77-.39,45.01-21.78,45.01-46.55v-45.66c0-2.77-2.24-5.01-5.01-5.01h-33.3c-3.61,0-6.03-3.7-4.59-7.01l14.37-33.02,19.92-45.75,2.22-5.11c-16.28-5.26-28.1-20.91-28.1-39.4,0-.42,0-.83.03-1.25.53-18.91,13.44-34.63,30.67-38.89,2.23-.55,3.8-2.55,3.8-4.85v-47.01c0-24.46-18.91-45.19-43.34-46.44-25.8-1.33-47.24,18.74-48.14,44.04-.03.93.01,1.87.06,2.8.04.64.07,1.51.05,2.55-.01.8-.05,1.7-.14,2.68-.55,6.23-2.88,15.67-11.44,22.22-6.27,4.79-13.09,5.91-17.72,6.01-1.21.03-2.27,0-3.14-.07-2.39-.17-6.3-.09-8.67.26-1.63.24-3.23.56-4.79.96-7.08,1.83-13.5,5.3-18.82,10-5.59,4.94-9.97,11.22-12.62,18.35-1.85,4.97-2.87,10.35-2.87,15.97Z"/>
      </g>
    </g>
  </g>
</svg>