<svg width="20" height="22" viewBox="0 0 20 22" fill="none" xmlns="http://www.w3.org/2000/svg">
<path d="M13.4617 1V4.75C13.4617 5.44036 14.0816 6 14.8463 6H19M5.84647 17.25V12.25M10.0002 17.25L10.0002 7.25M14.154 17.25V12.25M16.9231 2.875C16.3069 2.37723 15.6674 1.78685 15.2638 1.40342C14.9951 1.14827 14.624 1 14.2341 1H3.76927C2.23991 1 1.00012 2.11928 1.00011 3.49999L1 18.4999C0.99999 19.8807 2.23978 20.9999 3.76915 21L16.2304 21C17.7598 21 18.9996 19.8808 18.9996 18.5001L19 5.24774C19 4.92812 18.8649 4.62087 18.6192 4.39076C18.1648 3.96526 17.4061 3.26512 16.9231 2.875Z" stroke="#ECEFF2" stroke-width="2" stroke-linecap="round" stroke-linejoin="round"/>
</svg>
