<svg width="22" height="18" viewBox="0 0 22 18" fill="none" xmlns="http://www.w3.org/2000/svg">
<path d="M18.8947 7.4V4.13333C18.8947 3.58105 18.447 3.13333 17.8947 3.13333H10.8918C10.6243 3.13333 10.3679 3.02615 10.18 2.83574L8.6621 1.29759C8.47419 1.10718 8.21784 1 7.95032 1H2C1.44772 1 1 1.44772 1 2V16C1 16.5523 1.44772 17 2 17H3.25325C3.75287 17 4.15789 16.595 4.15789 16.0954V16.0954C4.15789 15.9882 4.17693 15.8819 4.21413 15.7814L7.07416 8.05294C7.21938 7.66052 7.59357 7.4 8.012 7.4H19.6183C20.2992 7.4 20.781 8.06568 20.5683 8.71248L18.0683 16.3125C17.9333 16.7227 17.5502 17 17.1183 17H3.10526" stroke="#ECEFF2" stroke-width="2" stroke-linecap="round" stroke-linejoin="round"/>
</svg>
