<svg width="23" height="22" viewBox="0 0 23 22" fill="none" xmlns="http://www.w3.org/2000/svg">
<g id="Google_icon-Sep15 1" clip-path="url(#clip0_368_99)">
<g id="Group">
<path id="Vector" d="M22.0635 11.2526C22.0635 10.5049 22.0029 9.75308 21.8736 9.01746H11.498V13.2534H17.4396C17.1931 14.6195 16.4009 15.828 15.2408 16.596V19.3445H18.7856C20.8671 17.4286 22.0635 14.5993 22.0635 11.2526Z" fill="#4285F4"/>
<path id="Vector_2" d="M11.498 21.9999C14.4647 21.9999 16.9666 21.0258 18.7895 19.3444L15.2448 16.5959C14.2586 17.2669 12.9854 17.6468 11.502 17.6468C8.63227 17.6468 6.19905 15.7108 5.326 13.1078H1.66809V15.9412C3.53544 19.6556 7.33886 21.9999 11.498 21.9999Z" fill="#34A853"/>
<path id="Vector_3" d="M5.32204 13.1078C4.86127 11.7416 4.86127 10.2623 5.32204 8.89611V6.06274H1.66817C0.108005 9.17096 0.108005 12.8329 1.66817 15.9411L5.32204 13.1078Z" fill="#FBBC04"/>
<path id="Vector_4" d="M11.498 4.35312C13.0662 4.32887 14.5819 4.91899 15.7177 6.00221L18.8582 2.86167C16.8696 0.994314 14.2303 -0.0323263 11.498 8.85525e-06C7.33886 8.85525e-06 3.53544 2.3443 1.66809 6.06284L5.32196 8.89621C6.19096 6.28919 8.62822 4.35312 11.498 4.35312Z" fill="#EA4335"/>
</g>
</g>
<defs>
<clipPath id="clip0_368_99">
<rect width="21.5635" height="22" fill="white" transform="translate(0.5)"/>
</clipPath>
</defs>
</svg>
