<svg width="25" height="24" viewBox="0 0 25 24" fill="none" xmlns="http://www.w3.org/2000/svg">
<path fill-rule="evenodd" clip-rule="evenodd" d="M0.5 0H2V22.5H24.5V24H0.5V0ZM15.5 17.2501C15.5 17.6643 15.8358 18.0001 16.25 18.0001H22.25C22.6642 18.0001 23 17.6643 23 17.2501V11.2501C23 10.8358 22.6642 10.5001 22.25 10.5001C21.8358 10.5001 21.5 10.8358 21.5 11.2501V15.149L16.0805 8.52512C15.9463 8.36112 15.749 8.26154 15.5374 8.25098C15.3257 8.24043 15.1195 8.31989 14.9697 8.46972L11.0903 12.3491L5.60655 4.80892C5.36292 4.47393 4.89386 4.39987 4.55887 4.6435C4.22388 4.88713 4.14982 5.35619 4.39345 5.69118L10.3934 13.9412C10.5225 14.1186 10.7227 14.2306 10.9413 14.2478C11.16 14.2649 11.3752 14.1855 11.5303 14.0304L15.4443 10.1164L20.6673 16.5001H16.25C15.8358 16.5001 15.5 16.8358 15.5 17.2501Z" fill="white"/>
</svg>
