<svg width="139" height="32" viewBox="0 0 139 32" fill="none" xmlns="http://www.w3.org/2000/svg">
<path d="M0 9.6C0 6.23969 0 4.55953 0.653961 3.27606C1.2292 2.14708 2.14708 1.2292 3.27606 0.653961C4.55953 0 6.23969 0 9.6 0H22.4C25.7603 0 27.4405 0 28.7239 0.653961C29.8529 1.2292 30.7708 2.14708 31.346 3.27606C32 4.55953 32 6.23969 32 9.6V22.4C32 25.7603 32 27.4405 31.346 28.7239C30.7708 29.8529 29.8529 30.7708 28.7239 31.346C27.4405 32 25.7603 32 22.4 32H9.6C6.23969 32 4.55953 32 3.27606 31.346C2.14708 30.7708 1.2292 29.8529 0.653961 28.7239C0 27.4405 0 25.7603 0 22.4V9.6Z" fill="url(#paint0_angular_4104_165)"/>
<path d="M13.4588 12.1882H18.5412L21.0824 24.4706H10.9177L13.4588 12.1882Z" fill="white"/>
<circle cx="16" cy="12.6118" r="5.08235" fill="white"/>
<path d="M41.2912 23V9.90909H43.6626V15.924H43.8224L48.9297 9.90909H51.8253L46.7628 15.7834L51.87 23H49.0192L45.1136 17.3878L43.6626 19.1009V23H41.2912ZM56.9964 23.1918C56.0121 23.1918 55.1619 22.9872 54.446 22.5781C53.7344 22.1648 53.1868 21.581 52.8033 20.8267C52.4197 20.0682 52.228 19.1754 52.228 18.1484C52.228 17.1385 52.4197 16.2521 52.8033 15.4893C53.1911 14.7223 53.7322 14.1257 54.4268 13.6996C55.1214 13.2692 55.9375 13.054 56.875 13.054C57.4801 13.054 58.0511 13.152 58.5881 13.348C59.1293 13.5398 59.6065 13.8381 60.0199 14.2429C60.4375 14.6477 60.7656 15.1634 61.0043 15.7898C61.2429 16.4119 61.3622 17.1534 61.3622 18.0142V18.7237H53.3146V17.1641H59.1442C59.1399 16.7209 59.044 16.3267 58.8565 15.9815C58.669 15.6321 58.407 15.3572 58.0703 15.157C57.7379 14.9567 57.3501 14.8565 56.907 14.8565C56.4339 14.8565 56.0185 14.9716 55.6605 15.2017C55.3026 15.4276 55.0234 15.7259 54.8232 16.0966C54.6271 16.4631 54.527 16.8658 54.5227 17.3047V18.6662C54.5227 19.2372 54.6271 19.7273 54.8359 20.1364C55.0447 20.5412 55.3366 20.8523 55.7116 21.0696C56.0866 21.2827 56.5256 21.3892 57.0284 21.3892C57.3651 21.3892 57.6697 21.3423 57.9425 21.2486C58.2152 21.1506 58.4517 21.0078 58.652 20.8203C58.8523 20.6328 59.0036 20.4006 59.1058 20.1236L61.2663 20.3665C61.13 20.9375 60.87 21.4361 60.4865 21.8622C60.1072 22.2841 59.6214 22.6122 59.0291 22.8466C58.4368 23.0767 57.7592 23.1918 56.9964 23.1918ZM64.4767 26.6818C64.1614 26.6818 63.8695 26.6563 63.601 26.6051C63.3368 26.5582 63.1259 26.5028 62.9682 26.4389L63.5051 24.6364C63.8418 24.7344 64.1422 24.7813 64.4064 24.777C64.6706 24.7727 64.9029 24.6896 65.1032 24.5277C65.3077 24.37 65.4803 24.1058 65.6209 23.7351L65.8191 23.2045L62.2587 13.1818H64.7132L66.976 20.5966H67.0783L69.3475 13.1818H71.8084L67.8773 24.1889C67.6941 24.7088 67.4512 25.1541 67.1486 25.5249C66.8461 25.8999 66.4753 26.1854 66.0364 26.3814C65.6017 26.5817 65.0819 26.6818 64.4767 26.6818ZM72.3214 11.897V9.90909H82.766V11.897H78.7198V23H76.3675V11.897H72.3214ZM83.6577 23V13.1818H85.9013V14.8182H86.0036C86.1825 14.2514 86.4893 13.8146 86.924 13.5078C87.3629 13.1967 87.8636 13.0412 88.4261 13.0412C88.554 13.0412 88.6967 13.0476 88.8544 13.0604C89.0163 13.0689 89.1506 13.0838 89.2571 13.1051V15.2337C89.1591 15.1996 89.0036 15.1697 88.7905 15.1442C88.5817 15.1143 88.3793 15.0994 88.1832 15.0994C87.7614 15.0994 87.3821 15.1911 87.0455 15.3743C86.7131 15.5533 86.451 15.8026 86.2592 16.1222C86.0675 16.4418 85.9716 16.8104 85.9716 17.228V23H83.6577ZM93.4439 23.1982C92.8217 23.1982 92.2614 23.0874 91.7628 22.8658C91.2685 22.6399 90.8764 22.3075 90.5866 21.8686C90.3011 21.4297 90.1584 20.8885 90.1584 20.245C90.1584 19.6911 90.2607 19.233 90.4652 18.8707C90.6697 18.5085 90.9489 18.2188 91.3026 18.0014C91.6563 17.7841 92.0547 17.62 92.4979 17.5092C92.9453 17.3942 93.4077 17.3111 93.8849 17.2599C94.4602 17.2003 94.9268 17.147 95.2848 17.1001C95.6428 17.049 95.9027 16.9723 96.0646 16.87C96.2308 16.7635 96.3139 16.5994 96.3139 16.3778V16.3395C96.3139 15.858 96.1712 15.4851 95.8857 15.2209C95.6001 14.9567 95.1889 14.8246 94.652 14.8246C94.0852 14.8246 93.6357 14.9482 93.3033 15.1953C92.9751 15.4425 92.7536 15.7344 92.6385 16.071L90.478 15.7642C90.6484 15.1676 90.9297 14.669 91.3217 14.2685C91.7138 13.8636 92.1932 13.5611 92.7599 13.3608C93.3267 13.1562 93.9531 13.054 94.6392 13.054C95.1122 13.054 95.5831 13.1094 96.0518 13.2202C96.5206 13.331 96.9489 13.5142 97.3366 13.7699C97.7244 14.0213 98.0355 14.3643 98.2699 14.799C98.5085 15.2337 98.6278 15.777 98.6278 16.429V23H96.4034V21.6513H96.3267C96.1861 21.924 95.9879 22.1797 95.7322 22.4183C95.4808 22.6527 95.1634 22.8423 94.7798 22.9872C94.4006 23.1278 93.9553 23.1982 93.4439 23.1982ZM94.0447 21.4979C94.5092 21.4979 94.9119 21.4062 95.2528 21.223C95.5938 21.0355 95.8558 20.7884 96.0391 20.4815C96.2266 20.1747 96.3203 19.8402 96.3203 19.478V18.321C96.2479 18.3807 96.1243 18.4361 95.9496 18.4872C95.7791 18.5384 95.5874 18.5831 95.3743 18.6214C95.1612 18.6598 94.9503 18.6939 94.7415 18.7237C94.5327 18.7536 94.3516 18.7791 94.1982 18.8004C93.853 18.8473 93.544 18.924 93.2713 19.0305C92.9986 19.1371 92.7834 19.2862 92.6257 19.478C92.468 19.6655 92.3892 19.9084 92.3892 20.2067C92.3892 20.6328 92.5447 20.9545 92.8558 21.1719C93.1669 21.3892 93.5632 21.4979 94.0447 21.4979ZM104.598 23.1726C103.827 23.1726 103.136 22.9744 102.527 22.5781C101.918 22.1818 101.436 21.6065 101.082 20.8523C100.729 20.098 100.552 19.1818 100.552 18.1037C100.552 17.0128 100.731 16.0923 101.089 15.3423C101.451 14.5881 101.939 14.0192 102.553 13.6357C103.166 13.2479 103.85 13.054 104.604 13.054C105.18 13.054 105.653 13.152 106.023 13.348C106.394 13.5398 106.688 13.772 106.906 14.0447C107.123 14.3132 107.291 14.5668 107.411 14.8054H107.506V9.90909H109.827V23H107.551V21.4531H107.411C107.291 21.6918 107.119 21.9453 106.893 22.2138C106.667 22.478 106.369 22.7038 105.998 22.8913C105.627 23.0788 105.161 23.1726 104.598 23.1726ZM105.244 21.2741C105.734 21.2741 106.151 21.142 106.496 20.8778C106.842 20.6094 107.104 20.2365 107.283 19.7592C107.462 19.282 107.551 18.7259 107.551 18.0909C107.551 17.456 107.462 16.9041 107.283 16.4354C107.108 15.9666 106.848 15.6023 106.503 15.3423C106.162 15.0824 105.742 14.9524 105.244 14.9524C104.728 14.9524 104.298 15.0866 103.952 15.3551C103.607 15.6236 103.347 15.9943 103.173 16.4673C102.998 16.9403 102.911 17.4815 102.911 18.0909C102.911 18.7045 102.998 19.2521 103.173 19.7337C103.352 20.2109 103.614 20.5881 103.959 20.8651C104.308 21.1378 104.737 21.2741 105.244 21.2741ZM112.292 23V13.1818H114.606V23H112.292ZM113.456 11.7884C113.089 11.7884 112.774 11.6669 112.51 11.424C112.246 11.1768 112.113 10.8807 112.113 10.5355C112.113 10.1861 112.246 9.88991 112.51 9.64702C112.774 9.39986 113.089 9.27628 113.456 9.27628C113.827 9.27628 114.142 9.39986 114.402 9.64702C114.666 9.88991 114.798 10.1861 114.798 10.5355C114.798 10.8807 114.666 11.1768 114.402 11.424C114.142 11.6669 113.827 11.7884 113.456 11.7884ZM119.3 17.2472V23H116.986V13.1818H119.197V14.8501H119.312C119.538 14.3004 119.898 13.8636 120.393 13.5398C120.891 13.2159 121.507 13.054 122.24 13.054C122.918 13.054 123.508 13.1989 124.011 13.4886C124.518 13.7784 124.91 14.1982 125.187 14.7479C125.468 15.2976 125.607 15.9645 125.602 16.7486V23H123.288V17.1065C123.288 16.4503 123.118 15.9368 122.777 15.5661C122.44 15.1953 121.974 15.0099 121.377 15.0099C120.972 15.0099 120.612 15.0994 120.297 15.2784C119.986 15.4531 119.741 15.7067 119.562 16.0391C119.387 16.3714 119.3 16.7741 119.3 17.2472ZM132.224 26.8864C131.393 26.8864 130.68 26.7734 130.083 26.5476C129.487 26.326 129.007 26.0277 128.645 25.6527C128.283 25.2777 128.031 24.8622 127.891 24.4062L129.974 23.9013C130.068 24.093 130.205 24.2827 130.384 24.4702C130.563 24.6619 130.803 24.8196 131.106 24.9432C131.413 25.071 131.798 25.1349 132.263 25.1349C132.919 25.1349 133.462 24.9751 133.893 24.6555C134.323 24.3402 134.538 23.8203 134.538 23.0959V21.2358H134.423C134.304 21.4744 134.129 21.7195 133.899 21.9709C133.673 22.2223 133.373 22.4332 132.998 22.6037C132.627 22.7741 132.161 22.8594 131.598 22.8594C130.844 22.8594 130.16 22.6825 129.546 22.3288C128.937 21.9709 128.451 21.4382 128.089 20.7308C127.731 20.0192 127.552 19.1286 127.552 18.0589C127.552 16.9808 127.731 16.071 128.089 15.3295C128.451 14.5838 128.939 14.0192 129.553 13.6357C130.166 13.2479 130.85 13.054 131.604 13.054C132.18 13.054 132.653 13.152 133.023 13.348C133.398 13.5398 133.697 13.772 133.918 14.0447C134.14 14.3132 134.308 14.5668 134.423 14.8054H134.551V13.1818H136.833V23.1598C136.833 23.9993 136.633 24.6939 136.232 25.2436C135.832 25.7933 135.284 26.2045 134.589 26.4773C133.895 26.75 133.107 26.8864 132.224 26.8864ZM132.244 21.044C132.734 21.044 133.151 20.9247 133.496 20.6861C133.842 20.4474 134.104 20.1044 134.283 19.657C134.462 19.2095 134.551 18.6726 134.551 18.0462C134.551 17.4283 134.462 16.8871 134.283 16.4226C134.108 15.9581 133.848 15.598 133.503 15.3423C133.162 15.0824 132.742 14.9524 132.244 14.9524C131.728 14.9524 131.298 15.0866 130.952 15.3551C130.607 15.6236 130.347 15.9922 130.173 16.4609C129.998 16.9254 129.911 17.4538 129.911 18.0462C129.911 18.647 129.998 19.1733 130.173 19.625C130.352 20.0724 130.614 20.4219 130.959 20.6733C131.308 20.9205 131.737 21.044 132.244 21.044Z" fill="#131337"/>
<defs>
<radialGradient id="paint0_angular_4104_165" cx="0" cy="0" r="1" gradientUnits="userSpaceOnUse" gradientTransform="translate(16 16) rotate(-45) scale(16.0278)">
<stop stop-color="#0500FF"/>
<stop offset="0.281" stop-color="#0500FF"/>
<stop offset="0.76" stop-color="#47FD93"/>
<stop offset="1" stop-color="#47FD93"/>
</radialGradient>
</defs>
</svg>
