<svg width="32" height="32" viewBox="0 0 32 32" fill="none" xmlns="http://www.w3.org/2000/svg">
<path d="M0 9.6C0 6.23969 0 4.55953 0.653961 3.27606C1.2292 2.14708 2.14708 1.2292 3.27606 0.653961C4.55953 0 6.23969 0 9.6 0H22.4C25.7603 0 27.4405 0 28.7239 0.653961C29.8529 1.2292 30.7708 2.14708 31.346 3.27606C32 4.55953 32 6.23969 32 9.6V22.4C32 25.7603 32 27.4405 31.346 28.7239C30.7708 29.8529 29.8529 30.7708 28.7239 31.346C27.4405 32 25.7603 32 22.4 32H9.6C6.23969 32 4.55953 32 3.27606 31.346C2.14708 30.7708 1.2292 29.8529 0.653961 28.7239C0 27.4405 0 25.7603 0 22.4V9.6Z" fill="url(#paint0_angular_4104_162)"/>
<path d="M13.4588 12.1882H18.5412L21.0824 24.4706H10.9177L13.4588 12.1882Z" fill="white"/>
<circle cx="16" cy="12.6118" r="5.08235" fill="white"/>
<defs>
<radialGradient id="paint0_angular_4104_162" cx="0" cy="0" r="1" gradientUnits="userSpaceOnUse" gradientTransform="translate(16 16) rotate(-45) scale(16.0278)">
<stop stop-color="#0500FF"/>
<stop offset="0.281" stop-color="#0500FF"/>
<stop offset="0.76" stop-color="#47FD93"/>
<stop offset="1" stop-color="#47FD93"/>
</radialGradient>
</defs>
</svg>
