<svg width="22" height="24" viewBox="0 0 22 24" fill="none" xmlns="http://www.w3.org/2000/svg">
<g opacity="0.7" clip-path="url(#clip0_5214_2660)">
<g clip-path="url(#clip1_5214_2660)">
<path fill-rule="evenodd" clip-rule="evenodd" d="M2.73613 6.05917C4.17821 6.05917 5.34725 4.89012 5.34725 3.44804C5.34725 2.00595 4.17821 0.836914 2.73613 0.836914C1.29404 0.836914 0.125 2.00595 0.125 3.44804C0.125 4.89012 1.29404 6.05917 2.73613 6.05917ZM21.9279 22.5861V14.3495C21.9279 11.9673 21.5666 10.06 20.3665 8.96837C19.4517 8.13387 18.1859 7.56842 15.7908 7.68715C13.6896 7.79306 12.4349 9.62607 12.2034 9.99848L12.1394 7.99635H7.82422V22.5852H12.3589V14.9406L12.3512 14.7125C12.3879 14.0933 12.487 13.2442 12.9107 12.5985C13.4231 11.8178 14.4208 11.5479 15.468 11.6589C17.0293 11.8204 17.3659 13.462 17.3659 14.2291V22.5869L21.9279 22.5861ZM0.44873 7.9973H4.97058V22.5861H0.44873V7.9973Z" fill="#131337"/>
</g>
</g>
<defs>
<clipPath id="clip0_5214_2660">
<rect width="22" height="23" fill="white" transform="translate(0 0.5)"/>
</clipPath>
<clipPath id="clip1_5214_2660">
<rect width="22" height="23" fill="white" transform="translate(0 0.5)"/>
</clipPath>
</defs>
</svg>
