<?xml version="1.0" encoding="UTF-8"?>
<svg id="_Слой_2" data-name="Слой 2" xmlns="http://www.w3.org/2000/svg" viewBox="0 0 1263.97 477.52">
  <defs>
    <style>
      .cls-1 {
        fill: none;
        stroke: #0600ff;
        stroke-miterlimit: 10;
      }

      .cls-2, .cls-3 {
        fill: #0500ff;
      }

      .cls-4 {
        fill: #fff;
      }

      .cls-3, .cls-5 {
        opacity: 0;
      }
    </style>
  </defs>
  <g id="_Слой_1-2" data-name="Слой 1">
    <g>
      <g class="cls-5">
        <polyline class="cls-1" points=".74 271.19 632.2 271.19 790.07 271.19 947.94 271.19 1105.8 271.19 1263.67 271.19"/>
      </g>
      <g class="cls-5">
        <polyline class="cls-1" points=".6 168.79 632.03 168.79 789.89 168.79 947.75 168.79 1105.61 168.79 1263.47 168.79"/>
      </g>
      <g class="cls-5">
        <polyline class="cls-1" points=".74 421.1 632.1 421.1 789.94 421.1 947.79 421.1 1105.63 421.1 1263.47 421.1"/>
      </g>
      <g class="cls-5">
        <path class="cls-1" d="M.5,477.02c0-5.4,0-59.18,0-59.18V.5c2.05,0,631.48,0,631.48,0h473.61s157.87,0,157.87,0v416.96s0,59.53,0,59.56H.5Z"/>
      </g>
      <g class="cls-5">
        <polyline class="cls-1" points="1207.95 1.18 1207.95 239.1 1207.95 298.58 1207.95 358.06 1207.95 417.54 1207.95 477.02"/>
      </g>
      <g class="cls-5">
        <polyline class="cls-1" points="410.39 1.31 410.39 239.16 410.39 298.63 410.39 358.09 410.39 417.56 410.39 477.02"/>
      </g>
      <g class="cls-5">
        <polyline class="cls-1" points="56.21 .5 56.21 238.76 56.21 298.32 56.21 357.89 56.21 417.45 56.21 477.02"/>
      </g>
      <path class="cls-2" d="M527.6,270.19l-29.5-43.97v43.97h-31.8v-101.41h31.8v42.68l29.08-42.68h35.95l-34.95,48.55,37.24,52.85h-37.81Z"/>
      <path class="cls-2" d="M641.46,235.39h-51.13c.48,6.97,3.39,10.46,8.74,10.46,3.44,0,5.92-1.58,7.45-4.73h33.66c-1.15,5.73-3.56,10.86-7.23,15.4-3.68,4.54-8.31,8.12-13.89,10.74-5.59,2.63-11.72,3.94-18.4,3.94-8.02,0-15.16-1.67-21.41-5.01-6.26-3.34-11.12-8.14-14.61-14.39-3.49-6.25-5.23-13.58-5.23-21.99s1.74-15.73,5.23-21.99c3.48-6.25,8.35-11.05,14.61-14.39,6.25-3.34,13.39-5.01,21.41-5.01s15.16,1.65,21.41,4.94c6.25,3.29,11.12,8,14.61,14.11,3.48,6.11,5.23,13.32,5.23,21.63,0,2.2-.14,4.3-.43,6.3ZM609.67,221.49c0-2.67-.86-4.7-2.58-6.09-1.72-1.38-3.87-2.08-6.45-2.08-5.64,0-8.93,2.72-9.88,8.16h18.91Z"/>
      <path class="cls-2" d="M739.08,189.41l-51.71,119.45h-34.8l20.34-42.68-33.66-76.77h35.38l15.18,40.96,14.18-40.96h35.09Z"/>
      <path class="cls-4" d="M783.49,168.79v101.41h-31.8v-101.41h31.8Z"/>
      <path class="cls-4" d="M876.08,198.15c5.2,6.21,7.81,14.61,7.81,25.21v46.84h-31.65v-42.83c0-3.82-1.03-6.85-3.08-9.09-2.05-2.24-4.8-3.37-8.24-3.37s-6.3,1.12-8.31,3.37c-2.01,2.24-3.01,5.28-3.01,9.09v42.83h-31.8v-80.78h31.8v12.32c2.48-3.82,5.8-6.92,9.95-9.31,4.15-2.39,9.1-3.58,14.82-3.58,9.26,0,16.49,3.1,21.7,9.31Z"/>
      <path class="cls-4" d="M933.31,239.97l12.89-50.56h33.8l-26.93,80.78h-39.67l-26.93-80.78h33.8l13.03,50.56Z"/>
      <path class="cls-4" d="M1063.58,235.39h-51.13c.48,6.97,3.39,10.46,8.74,10.46,3.44,0,5.92-1.58,7.45-4.73h33.66c-1.15,5.73-3.56,10.86-7.23,15.4-3.68,4.54-8.31,8.12-13.89,10.74-5.59,2.63-11.72,3.94-18.4,3.94-8.02,0-15.16-1.67-21.41-5.01-6.26-3.34-11.12-8.14-14.61-14.39-3.49-6.25-5.23-13.58-5.23-21.99s1.74-15.73,5.23-21.99c3.48-6.25,8.35-11.05,14.61-14.39,6.25-3.34,13.39-5.01,21.41-5.01s15.16,1.65,21.41,4.94c6.25,3.29,11.12,8,14.61,14.11,3.48,6.11,5.23,13.32,5.23,21.63,0,2.2-.14,4.3-.43,6.3ZM1031.78,221.49c0-2.67-.86-4.7-2.58-6.09-1.72-1.38-3.87-2.08-6.45-2.08-5.64,0-8.93,2.72-9.88,8.16h18.91Z"/>
      <path class="cls-4" d="M1089.72,267.47c-5.87-2.48-10.53-5.92-13.96-10.31-3.44-4.39-5.4-9.36-5.87-14.9h30.51c.38,2.39,1.41,4.15,3.08,5.3,1.67,1.15,3.8,1.72,6.37,1.72,1.62,0,2.91-.36,3.87-1.07.95-.72,1.43-1.6,1.43-2.65,0-1.81-1-3.1-3.01-3.87-2.01-.76-5.4-1.62-10.17-2.58-5.83-1.15-10.62-2.39-14.39-3.72-3.77-1.34-7.07-3.63-9.88-6.87-2.82-3.25-4.23-7.73-4.23-13.46,0-4.96,1.31-9.48,3.94-13.54,2.63-4.06,6.52-7.26,11.67-9.6,5.16-2.34,11.41-3.51,18.76-3.51,10.89,0,19.41,2.67,25.57,8.02,6.16,5.35,9.86,12.32,11.1,20.91h-28.22c-.48-2.2-1.48-3.89-3.01-5.08-1.53-1.19-3.58-1.79-6.16-1.79-1.62,0-2.86.31-3.72.93-.86.62-1.29,1.55-1.29,2.79,0,1.62,1,2.84,3.01,3.65,2.01.81,5.2,1.65,9.6,2.51,5.82,1.15,10.74,2.43,14.75,3.87,4.01,1.43,7.49,3.89,10.46,7.38,2.96,3.49,4.44,8.28,4.44,14.39,0,4.78-1.39,9.07-4.15,12.89-2.77,3.82-6.76,6.83-11.96,9.02-5.21,2.2-11.29,3.29-18.26,3.29-7.64,0-14.39-1.24-20.27-3.72Z"/>
      <path class="cls-4" d="M1207.55,242.81v27.38h-12.17c-22.41,0-33.61-11.15-33.61-33.46v-21.44h-10.14v-26.8h10.14v-19.7h32.16v19.7h13.33v26.8h-13.33v22.02c0,1.93.46,3.33,1.38,4.2.92.87,2.44,1.3,4.56,1.3h7.68Z"/>
      <g class="cls-5">
        <polyline class="cls-1" points="466.72 1.18 466.72 239.04 466.72 298.5 466.72 357.96 466.72 417.43 466.72 476.89"/>
      </g>
      <g class="cls-5">
        <polyline class="cls-1" points=".5 55.78 631.98 55.78 789.85 55.78 947.72 55.78 1105.6 55.78 1263.47 55.78"/>
      </g>
      <path class="cls-4" d="M407.25,166.06c-2.65-7.11-7.02-13.38-12.6-18.31-5.31-4.69-11.72-8.16-18.79-9.98-1.57-.4-3.16-.72-4.79-.96-2.37-.34-6.27-.43-8.65-.26-.86.06-1.92.1-3.13.07-4.62-.1-11.43-1.22-17.68-6-8.54-6.53-10.87-15.96-11.42-22.17-.09-.98-.13-1.88-.14-2.68-.02-1.05,0-1.91.05-2.55.05-.93.1-1.86.06-2.79-.9-25.25-22.29-45.28-48.05-43.95-24.38,1.25-43.26,21.94-43.26,46.36v46.92c0,2.29,1.56,4.29,3.79,4.84,17.2,4.25,30.08,19.94,30.61,38.81.03.42.03.82.03,1.24,0,18.46-11.8,34.07-28.05,39.32l2.22,5.1,19.88,45.67,14.35,32.96c1.44,3.3-.98,7-4.58,7h-33.24c-2.76,0-5,2.24-5,5v45.57c0,24.72,20.21,46.07,44.93,46.46,25.55.4,46.4-20.2,46.4-45.66v-4.41c0-4.6.96-11.82,6.01-18.42,7.43-9.7,18.61-11.4,24.57-11.56.87-.02,1.63,0,2.25.02,2.16-.05,4.31-.1,6.47-.15,2.17-.24,4.29-.63,6.37-1.16,7.07-1.83,13.47-5.29,18.79-9.98,9.48-8.37,15.46-20.61,15.46-34.25,0-3.94-.49-7.76-1.43-11.42-2.64-10.25-8.75-19.11-17.01-25.25-5.04-3.75-8.56-9.26-9.61-15.44-.07-.43-.14-.86-.19-1.31-.15-1.26-.2-2.49-.17-3.67.09-4.22,1.2-7.99,2.71-11.19s4.96-7.47,7.72-9.57c8.02-6.13,13.95-14.84,16.54-24.9.94-3.65,1.43-7.47,1.43-11.42,0-5.61-1.01-10.98-2.86-15.94Z"/>
      <path class="cls-4" d="M56.42,181.92c0,3.94.49,7.76,1.43,11.42,2.59,10.06,8.52,18.77,16.54,24.9,2.76,2.1,6.24,6.44,7.72,9.57s2.62,6.97,2.71,11.19c.04,1.18-.01,2.41-.17,3.67-.05.44-.12.88-.19,1.31-1.05,6.19-4.57,11.7-9.61,15.44-8.25,6.14-14.37,15-17.01,25.25-.94,3.65-1.43,7.47-1.43,11.42,0,13.64,5.99,25.88,15.46,34.25,5.31,4.69,11.72,8.16,18.79,9.98,2.07.53,4.2.92,6.37,1.16l6.47.15c.61-.02,1.37-.04,2.25-.02,5.96.15,17.14,1.85,24.57,11.56,5.05,6.6,6.01,13.81,6.01,18.42v4.41c0,25.46,20.85,46.06,46.4,45.66,24.72-.39,44.93-21.74,44.93-46.46v-45.57c0-2.76-2.24-5-5-5h-33.24c-3.6,0-6.02-3.69-4.58-7l14.35-32.96,19.88-45.67,2.22-5.1c-16.25-5.25-28.05-20.87-28.05-39.32,0-.42,0-.82.03-1.24.53-18.87,13.41-34.56,30.61-38.81,2.23-.55,3.79-2.55,3.79-4.84v-46.92c0-24.42-18.87-45.1-43.26-46.36-25.75-1.32-47.15,18.71-48.05,43.95-.03.93.01,1.86.06,2.79.04.63.06,1.5.05,2.55-.01.8-.05,1.7-.14,2.68-.55,6.22-2.88,15.64-11.42,22.17-6.25,4.78-13.07,5.9-17.68,6-1.21.03-2.27,0-3.13-.07-2.39-.17-6.28-.09-8.65.26-1.62.24-3.22.56-4.79.96-7.07,1.83-13.47,5.29-18.79,9.98-5.58,4.93-9.95,11.2-12.6,18.31-1.85,4.96-2.86,10.33-2.86,15.94Z"/>
      <path class="cls-3" d="M1207.55,347.08v-27.38h12.17c22.41,0,33.61,11.15,33.61,33.46v21.44h10.14v26.8h-10.14v19.7h-32.16v-19.7h-13.33v-26.8h13.33v-22.02c0-1.93-.46-3.33-1.38-4.2-.92-.87-2.44-1.3-4.56-1.3h-7.68Z"/>
      <path class="cls-3" d="M1180.57,421.1h27.38v12.17c0,22.41-11.15,33.61-33.46,33.61h-21.44v10.14h-26.8v-10.14h-19.7v-32.16h19.7v-13.33h26.8v13.33h22.02c1.93,0,3.33-.46,4.2-1.38.87-.92,1.3-2.44,1.3-4.56v-7.68Z"/>
      <path class="cls-3" d="M466.3,243.81v27.38h-12.17c-22.41,0-33.61-11.15-33.61-33.46v-21.44h-10.14v-26.8h10.14v-19.7h32.16v19.7h13.33v26.8h-13.33v22.02c0,1.93.46,3.33,1.38,4.2.92.87,2.44,1.3,4.56,1.3h7.68Z"/>
      <path class="cls-3" d="M130.44.5h27.38v12.17c0,22.41-11.15,33.61-33.46,33.61h-21.44v10.14h-26.8v-10.14h-19.7V14.12h19.7V.79h26.8v13.33h22.02c1.93,0,3.33-.46,4.2-1.38.87-.92,1.3-2.44,1.3-4.56V.5Z"/>
      <path class="cls-3" d="M56.42,129.81v27.38h-12.17c-22.41,0-33.61-11.15-33.61-33.46v-21.44H.5v-26.8h10.14v-19.7h32.16v19.7h13.33v26.8h-13.33v22.02c0,1.93.46,3.33,1.38,4.2.92.87,2.44,1.3,4.56,1.3h7.68Z"/>
    </g>
  </g>
</svg>