<svg width="25" height="24" viewBox="0 0 25 24" fill="none" xmlns="http://www.w3.org/2000/svg">
<path d="M0.5 3.75C0.5 2.50736 1.50736 1.5 2.75 1.5H19.25C20.4926 1.5 21.5 2.50736 21.5 3.75V19.5418C21.5 19.9908 21.4247 20.5237 21.1436 21H22.25C22.6642 21 23 20.6642 23 20.25V6.75C23 6.33579 23.3358 6 23.75 6C24.1642 6 24.5 6.33579 24.5 6.75V20.25C24.5 21.4926 23.4926 22.5 22.25 22.5H2.74485C1.49886 22.5 0.5 21.4893 0.5 20.25V3.75ZM18.5 21C19.054 21 19.4807 20.6827 19.7797 20.338C19.9172 20.1795 20 19.92 20 19.5418V3.75C20 3.33579 19.6642 3 19.25 3H2.75C2.33579 3 2 3.33579 2 3.75V20.25C2 20.6676 2.334 21 2.74485 21H18.5Z" fill="white"/>
<path d="M3.5 4.5H18.5V7.5H3.5V4.5Z" fill="white"/>
<path d="M3.5 9H9.5V13.5H3.5V9Z" fill="white"/>
<path d="M3.5 15H9.5V16.5H3.5V15Z" fill="white"/>
<path d="M3.5 18H9.5V19.5H3.5V18Z" fill="white"/>
<path d="M11 9H14V10.5H11V9Z" fill="white"/>
<path d="M15.5 9H18.5V10.5H15.5V9Z" fill="white"/>
<path d="M11 12H14V13.5H11V12Z" fill="white"/>
<path d="M15.5 12H18.5V13.5H15.5V12Z" fill="white"/>
<path d="M11 15H14V16.5H11V15Z" fill="white"/>
<path d="M15.5 15H18.5V16.5H15.5V15Z" fill="white"/>
<path d="M11 18H14V19.5H11V18Z" fill="white"/>
<path d="M15.5 18H18.5V19.5H15.5V18Z" fill="white"/>
</svg>
