<svg width="20" height="17" viewBox="0 0 20 17" fill="none" xmlns="http://www.w3.org/2000/svg">
<rect x="8.9718" y="5.18091" width="2.05507" height="3" rx="1" transform="rotate(90 8.9718 5.18091)" fill="#ECEFF2"/>
<rect x="13.9718" y="5.18091" width="2.05507" height="3" rx="1" transform="rotate(90 13.9718 5.18091)" fill="#ECEFF2"/>
<ellipse cx="9.9718" cy="11.3485" rx="3" ry="0.513767" fill="#ECEFF2"/>
<path d="M9.98016 4.30389C9.37969 4.29696 8.79374 4.26248 8.25494 4.23077C8.0394 4.21808 7.83141 4.20584 7.63305 4.19598C6.91952 4.16053 6.32984 4.15582 5.85331 4.24232C5.38771 4.32685 5.08214 4.48914 4.87876 4.7502C4.66822 5.02046 4.5079 5.47222 4.49935 6.25711C4.4908 7.04104 4.64488 7.48356 4.84875 7.74468C5.0464 7.99785 5.35133 8.15756 5.82682 8.24093C6.31176 8.32596 6.91105 8.32089 7.63385 8.29075C7.78965 8.28425 7.95079 8.27662 8.11642 8.26877C8.70078 8.24108 9.34109 8.21074 10.0003 8.21835C10.6608 8.22597 11.2997 8.27121 11.8815 8.31242C12.0451 8.324 12.2041 8.33526 12.3578 8.34528C13.0759 8.39206 13.6689 8.4108 14.1494 8.33712C14.6198 8.265 14.9222 8.11329 15.1217 7.86584C15.3285 7.60934 15.4901 7.16952 15.4987 6.38406C15.5072 5.60198 15.3528 5.14833 15.1431 4.87349C14.9389 4.60587 14.6262 4.43454 14.1498 4.3384C13.664 4.24035 13.0631 4.23146 12.3416 4.25034C12.1393 4.25563 11.9274 4.26312 11.7081 4.27087C11.1659 4.29004 10.5786 4.3108 9.98016 4.30389Z" stroke="#ECEFF2"/>
<mask id="path-5-inside-1_5661_2110" fill="white">
<path fill-rule="evenodd" clip-rule="evenodd" d="M11.2072 14.7274C10.4681 15.1247 9.57893 15.1247 8.83982 14.7274L3.40742 11.8073C3.57639 11.3348 3.55526 10.6994 3.53124 9.97743C3.52 9.63947 3.50813 9.28253 3.51482 8.91443C3.52154 8.54513 3.5465 8.18941 3.57004 7.85383C3.6261 7.05476 3.67416 6.36984 3.44891 5.88754V4.36573C3.44891 3.17955 4.28247 2.15666 5.44423 1.9172L9.51881 1.07735C9.85177 1.00872 10.1952 1.00872 10.5282 1.07735L14.6028 1.9172C15.7645 2.15666 16.5981 3.17955 16.5981 4.36573V5.92398C16.4209 6.3808 16.45 7.00778 16.4834 7.72756V7.72758C16.5004 8.09359 16.5185 8.4836 16.5111 8.88743C16.5038 9.29202 16.4714 9.68069 16.4411 10.0447C16.3798 10.7814 16.3269 11.417 16.5066 11.8788L11.2072 14.7274ZM2.44891 5.19599V4.36573C2.44891 2.70508 3.61589 1.27304 5.24235 0.93779L9.31693 0.0979394C9.78308 0.00185859 10.2639 0.00185859 10.7301 0.0979403L14.8046 0.937791C16.4311 1.27304 17.5981 2.70507 17.5981 4.36573V5.17932C17.78 5.14732 17.99 5.13291 18.2322 5.13767C20.1413 5.17513 20.0625 6.29817 19.9533 7.85383C19.9298 8.18941 19.9048 8.54513 19.8981 8.91443C19.8914 9.28253 19.9033 9.63947 19.9145 9.97743C19.9669 11.5502 20.0055 12.7119 18.0951 12.6744C17.7882 12.6684 17.5342 12.6342 17.3244 12.5745L11.6806 15.6082C10.6459 16.1645 9.4011 16.1645 8.36635 15.6082L2.71218 12.5689L2.73709 12.5226C2.48126 12.6292 2.14712 12.683 1.71176 12.6744C-0.158005 12.6377 -0.0677285 11.5531 0.0578236 10.0447C0.08812 9.68069 0.12047 9.29202 0.12783 8.88743C0.135177 8.4836 0.117085 8.09359 0.100107 7.72758C0.0295846 6.20727 -0.0217339 5.10096 1.84886 5.13767C2.0759 5.14212 2.27482 5.16193 2.44891 5.19599ZM18.9576 7.75512V7.75516C18.9335 8.09901 18.9055 8.49782 18.8983 8.89481C18.8911 9.29028 18.9044 9.69032 18.9159 10.0368V10.0369V10.0369L18.9159 10.0374C18.9203 10.1699 18.9245 10.2945 18.9271 10.4081C18.9376 10.8606 18.9254 11.1588 18.8777 11.3689C18.8386 11.5407 18.7959 11.5666 18.7869 11.5721L18.7858 11.5728C18.7517 11.5961 18.5894 11.6839 18.1132 11.6746C17.6307 11.6651 17.4821 11.5712 17.4611 11.5555L17.4607 11.5552C17.4558 11.5515 17.454 11.5502 17.4485 11.5398C17.4398 11.5232 17.4207 11.4786 17.4056 11.3853C17.3718 11.1774 17.3782 10.8839 17.4133 10.429C17.4201 10.3406 17.428 10.2463 17.4362 10.1473L17.4362 10.1473L17.4362 10.1472C17.4669 9.77985 17.5029 9.34762 17.5109 8.90705C17.5189 8.46736 17.4987 8.03365 17.4815 7.66408L17.4815 7.66361C17.4768 7.56342 17.4724 7.46795 17.4688 7.37836C17.4504 6.92023 17.4545 6.62208 17.4964 6.41085C17.5153 6.3156 17.5366 6.26911 17.5472 6.2505C17.5545 6.23764 17.5574 6.23556 17.5632 6.23156L17.5632 6.23153C17.5842 6.21687 17.7341 6.12809 18.214 6.1375C18.695 6.14694 18.8576 6.23973 18.892 6.26461L18.8928 6.26503C18.8989 6.26844 18.9367 6.28947 18.9679 6.45109C19.0071 6.65394 19.0089 6.94374 18.982 7.39131C18.9753 7.50265 18.9667 7.62495 18.9576 7.75512ZM2.51501 8.89481C2.52224 8.4978 2.5502 8.09898 2.57431 7.75512C2.58344 7.62495 2.59201 7.50265 2.5987 7.39131C2.62558 6.94374 2.62381 6.65394 2.5846 6.45109C2.55337 6.28947 2.51559 6.26844 2.50946 6.26503L2.50875 6.26461C2.47432 6.23973 2.31169 6.14694 1.83068 6.1375C1.35084 6.12809 1.20087 6.21687 1.17989 6.23153L1.17986 6.23156C1.17414 6.23556 1.17116 6.23764 1.16385 6.2505C1.15327 6.26911 1.13196 6.3156 1.11308 6.41085C1.0712 6.62208 1.06707 6.92023 1.0855 7.37836C1.0891 7.46806 1.09356 7.56366 1.09823 7.66398L1.09823 7.66408L1.09823 7.66408C1.11544 8.03366 1.13564 8.46736 1.12764 8.90705C1.11962 9.34767 1.08356 9.77993 1.05292 10.1473L1.05291 10.1474C1.04466 10.2464 1.03679 10.3406 1.02998 10.429C0.994922 10.8839 0.988489 11.1774 1.02227 11.3853C1.03743 11.4786 1.05647 11.5232 1.06521 11.5398C1.07071 11.5502 1.07246 11.5515 1.07741 11.5552L1.07781 11.5555C1.09883 11.5712 1.24745 11.6651 1.72995 11.6746C2.20607 11.6839 2.36837 11.5961 2.40248 11.5728L2.4036 11.5721C2.41258 11.5666 2.45528 11.5407 2.49436 11.3689C2.54212 11.1588 2.55429 10.8606 2.5438 10.4081C2.54116 10.2944 2.53702 10.1696 2.53261 10.0369C2.52111 9.69038 2.50782 9.29031 2.51501 8.89481Z"/>
</mask>
<path fill-rule="evenodd" clip-rule="evenodd" d="M11.2072 14.7274C10.4681 15.1247 9.57893 15.1247 8.83982 14.7274L3.40742 11.8073C3.57639 11.3348 3.55526 10.6994 3.53124 9.97743C3.52 9.63947 3.50813 9.28253 3.51482 8.91443C3.52154 8.54513 3.5465 8.18941 3.57004 7.85383C3.6261 7.05476 3.67416 6.36984 3.44891 5.88754V4.36573C3.44891 3.17955 4.28247 2.15666 5.44423 1.9172L9.51881 1.07735C9.85177 1.00872 10.1952 1.00872 10.5282 1.07735L14.6028 1.9172C15.7645 2.15666 16.5981 3.17955 16.5981 4.36573V5.92398C16.4209 6.3808 16.45 7.00778 16.4834 7.72756V7.72758C16.5004 8.09359 16.5185 8.4836 16.5111 8.88743C16.5038 9.29202 16.4714 9.68069 16.4411 10.0447C16.3798 10.7814 16.3269 11.417 16.5066 11.8788L11.2072 14.7274ZM2.44891 5.19599V4.36573C2.44891 2.70508 3.61589 1.27304 5.24235 0.93779L9.31693 0.0979394C9.78308 0.00185859 10.2639 0.00185859 10.7301 0.0979403L14.8046 0.937791C16.4311 1.27304 17.5981 2.70507 17.5981 4.36573V5.17932C17.78 5.14732 17.99 5.13291 18.2322 5.13767C20.1413 5.17513 20.0625 6.29817 19.9533 7.85383C19.9298 8.18941 19.9048 8.54513 19.8981 8.91443C19.8914 9.28253 19.9033 9.63947 19.9145 9.97743C19.9669 11.5502 20.0055 12.7119 18.0951 12.6744C17.7882 12.6684 17.5342 12.6342 17.3244 12.5745L11.6806 15.6082C10.6459 16.1645 9.4011 16.1645 8.36635 15.6082L2.71218 12.5689L2.73709 12.5226C2.48126 12.6292 2.14712 12.683 1.71176 12.6744C-0.158005 12.6377 -0.0677285 11.5531 0.0578236 10.0447C0.08812 9.68069 0.12047 9.29202 0.12783 8.88743C0.135177 8.4836 0.117085 8.09359 0.100107 7.72758C0.0295846 6.20727 -0.0217339 5.10096 1.84886 5.13767C2.0759 5.14212 2.27482 5.16193 2.44891 5.19599ZM18.9576 7.75512V7.75516C18.9335 8.09901 18.9055 8.49782 18.8983 8.89481C18.8911 9.29028 18.9044 9.69032 18.9159 10.0368V10.0369V10.0369L18.9159 10.0374C18.9203 10.1699 18.9245 10.2945 18.9271 10.4081C18.9376 10.8606 18.9254 11.1588 18.8777 11.3689C18.8386 11.5407 18.7959 11.5666 18.7869 11.5721L18.7858 11.5728C18.7517 11.5961 18.5894 11.6839 18.1132 11.6746C17.6307 11.6651 17.4821 11.5712 17.4611 11.5555L17.4607 11.5552C17.4558 11.5515 17.454 11.5502 17.4485 11.5398C17.4398 11.5232 17.4207 11.4786 17.4056 11.3853C17.3718 11.1774 17.3782 10.8839 17.4133 10.429C17.4201 10.3406 17.428 10.2463 17.4362 10.1473L17.4362 10.1473L17.4362 10.1472C17.4669 9.77985 17.5029 9.34762 17.5109 8.90705C17.5189 8.46736 17.4987 8.03365 17.4815 7.66408L17.4815 7.66361C17.4768 7.56342 17.4724 7.46795 17.4688 7.37836C17.4504 6.92023 17.4545 6.62208 17.4964 6.41085C17.5153 6.3156 17.5366 6.26911 17.5472 6.2505C17.5545 6.23764 17.5574 6.23556 17.5632 6.23156L17.5632 6.23153C17.5842 6.21687 17.7341 6.12809 18.214 6.1375C18.695 6.14694 18.8576 6.23973 18.892 6.26461L18.8928 6.26503C18.8989 6.26844 18.9367 6.28947 18.9679 6.45109C19.0071 6.65394 19.0089 6.94374 18.982 7.39131C18.9753 7.50265 18.9667 7.62495 18.9576 7.75512ZM2.51501 8.89481C2.52224 8.4978 2.5502 8.09898 2.57431 7.75512C2.58344 7.62495 2.59201 7.50265 2.5987 7.39131C2.62558 6.94374 2.62381 6.65394 2.5846 6.45109C2.55337 6.28947 2.51559 6.26844 2.50946 6.26503L2.50875 6.26461C2.47432 6.23973 2.31169 6.14694 1.83068 6.1375C1.35084 6.12809 1.20087 6.21687 1.17989 6.23153L1.17986 6.23156C1.17414 6.23556 1.17116 6.23764 1.16385 6.2505C1.15327 6.26911 1.13196 6.3156 1.11308 6.41085C1.0712 6.62208 1.06707 6.92023 1.0855 7.37836C1.0891 7.46806 1.09356 7.56366 1.09823 7.66398L1.09823 7.66408L1.09823 7.66408C1.11544 8.03366 1.13564 8.46736 1.12764 8.90705C1.11962 9.34767 1.08356 9.77993 1.05292 10.1473L1.05291 10.1474C1.04466 10.2464 1.03679 10.3406 1.02998 10.429C0.994922 10.8839 0.988489 11.1774 1.02227 11.3853C1.03743 11.4786 1.05647 11.5232 1.06521 11.5398C1.07071 11.5502 1.07246 11.5515 1.07741 11.5552L1.07781 11.5555C1.09883 11.5712 1.24745 11.6651 1.72995 11.6746C2.20607 11.6839 2.36837 11.5961 2.40248 11.5728L2.4036 11.5721C2.41258 11.5666 2.45528 11.5407 2.49436 11.3689C2.54212 11.1588 2.55429 10.8606 2.5438 10.4081C2.54116 10.2944 2.53702 10.1696 2.53261 10.0369C2.52111 9.69038 2.50782 9.29031 2.51501 8.89481Z" fill="#ECEFF2"/>
<path d="M8.83982 14.7274L9.78676 12.9658L9.78676 12.9658L8.83982 14.7274ZM11.2072 14.7274L10.2602 12.9658L11.2072 14.7274ZM3.40742 11.8073L1.52422 11.1338L0.944765 12.7542L2.46048 13.5689L3.40742 11.8073ZM3.53124 9.97743L1.53235 10.0439L3.53124 9.97743ZM3.51482 8.91443L5.51449 8.95081V8.95081L3.51482 8.91443ZM3.57004 7.85383L1.57495 7.71385L3.57004 7.85383ZM3.44891 5.88754H1.44891V6.33155L1.63679 6.73384L3.44891 5.88754ZM5.44423 1.9172L5.84798 3.87602H5.84798L5.44423 1.9172ZM9.51881 1.07735L9.92256 3.03617L9.92256 3.03617L9.51881 1.07735ZM10.5282 1.07735L10.9319 -0.881472L10.9319 -0.881472L10.5282 1.07735ZM14.6028 1.9172L14.199 3.87602L14.199 3.87603L14.6028 1.9172ZM16.5981 5.92398L18.4628 6.64708L18.5981 6.29819V5.92398H16.5981ZM16.4834 7.72756H18.4834V7.6812L18.4813 7.63488L16.4834 7.72756ZM16.4834 7.72758H14.4834V7.77394L14.4856 7.82025L16.4834 7.72758ZM16.5111 8.88743L14.5115 8.85105V8.85106L16.5111 8.88743ZM16.4411 10.0447L18.4342 10.2106L18.4342 10.2106L16.4411 10.0447ZM16.5066 11.8788L17.4536 13.6404L19.0122 12.8026L18.3705 11.1535L16.5066 11.8788ZM2.44891 5.19599L2.06491 7.15878L4.44891 7.6252V5.19599H2.44891ZM5.24235 0.93779L4.8386 -1.02103H4.8386L5.24235 0.93779ZM9.31693 0.0979394L8.91318 -1.86088L8.91318 -1.86088L9.31693 0.0979394ZM10.7301 0.0979403L10.3263 2.05676L10.3263 2.05676L10.7301 0.0979403ZM14.8046 0.937791L15.2084 -1.02103L15.2084 -1.02103L14.8046 0.937791ZM17.5981 5.17932H15.5981V7.56176L17.9445 7.14908L17.5981 5.17932ZM18.2322 5.13767L18.2714 3.13805L18.2322 5.13767ZM19.9533 7.85383L17.9582 7.71385V7.71385L19.9533 7.85383ZM19.8981 8.91443L21.8978 8.95081V8.9508L19.8981 8.91443ZM19.9145 9.97743L21.9134 9.91094V9.91094L19.9145 9.97743ZM18.0951 12.6744L18.0558 14.674L18.0951 12.6744ZM17.3244 12.5745L17.8719 10.6509L17.0918 10.4289L16.3775 10.8129L17.3244 12.5745ZM11.6806 15.6082L10.7337 13.8466L11.6806 15.6082ZM8.36635 15.6082L7.4194 17.3699L7.41941 17.3699L8.36635 15.6082ZM2.71218 12.5689L0.950557 11.622L0.00362454 13.3836L1.76524 14.3305L2.71218 12.5689ZM2.73709 12.5226L4.49871 13.4695L7.16505 8.5092L1.96734 10.6766L2.73709 12.5226ZM1.71176 12.6744L1.751 10.6748H1.751L1.71176 12.6744ZM0.0578236 10.0447L2.05093 10.2106L0.0578236 10.0447ZM0.12783 8.88743L-1.87184 8.85106L0.12783 8.88743ZM0.100107 7.72758L2.09796 7.6349L0.100107 7.72758ZM1.84886 5.13767L1.8881 3.13805H1.8881L1.84886 5.13767ZM18.9576 7.75516L20.9527 7.89506L20.9576 7.82519V7.75516H18.9576ZM18.9576 7.75512L16.9625 7.61524L16.9576 7.68509V7.75512H18.9576ZM18.8983 8.89481L20.898 8.9312L20.898 8.93118L18.8983 8.89481ZM18.9159 10.0368H20.9159V10.0036L20.9148 9.97042L18.9159 10.0368ZM18.9159 10.0369H16.9159V10.0726L16.9172 10.1083L18.9159 10.0369ZM18.9159 10.0374L20.9148 9.97099L20.9147 9.96599L18.9159 10.0374ZM18.9271 10.4081L16.9276 10.4544V10.4544L18.9271 10.4081ZM18.8777 11.3689L16.9275 10.9253L16.9275 10.9253L18.8777 11.3689ZM18.7869 11.5721L17.7485 9.86276L17.7375 9.86944L17.7267 9.87625L18.7869 11.5721ZM18.7858 11.5728L17.7255 9.87696L17.6911 9.89847L17.6576 9.92136L18.7858 11.5728ZM18.1132 11.6746L18.1525 9.67498L18.1525 9.67498L18.1132 11.6746ZM17.4611 11.5555L18.6587 9.9537L18.6563 9.95194L17.4611 11.5555ZM17.4607 11.5552L16.2639 13.1576L16.2655 13.1588L17.4607 11.5552ZM17.4485 11.5398L15.679 12.4719L15.6791 12.4721L17.4485 11.5398ZM17.4056 11.3853L15.4314 11.706L15.4314 11.706L17.4056 11.3853ZM17.4133 10.429L19.4074 10.5827L17.4133 10.429ZM17.4362 10.1473L19.4293 10.3136L19.4298 10.3068L17.4362 10.1473ZM17.4362 10.1473L15.4634 9.81847L15.4494 9.90268L15.4426 9.98778L17.4362 10.1473ZM17.4362 10.1472L19.409 10.476L19.4225 10.3952L19.4293 10.3135L17.4362 10.1472ZM17.5109 8.90705L15.5113 8.87067V8.87068L17.5109 8.90705ZM17.4815 7.66408L19.4794 7.57104L19.4792 7.56663L17.4815 7.66408ZM17.4815 7.66361L15.4837 7.75664L15.4839 7.76105L17.4815 7.66361ZM17.4688 7.37836L15.4704 7.45871L15.4704 7.45872L17.4688 7.37836ZM17.4964 6.41085L19.4582 6.79981L19.4582 6.7998L17.4964 6.41085ZM17.5472 6.2505L15.8085 5.26208L15.8084 5.26214L17.5472 6.2505ZM17.5632 6.23156L18.7091 7.87071L18.7198 7.86322L18.7304 7.85559L17.5632 6.23156ZM17.5632 6.23153L16.4172 4.59242L16.4065 4.59989L16.3959 4.6075L17.5632 6.23153ZM18.214 6.1375L18.2532 4.13789H18.2532L18.214 6.1375ZM18.892 6.26461L17.7206 7.88566L17.7969 7.94077L17.878 7.98848L18.892 6.26461ZM18.8928 6.26503L17.8787 7.9889L17.8992 8.00096L17.92 8.01252L18.8928 6.26503ZM18.9679 6.45109L20.9316 6.07158L20.9316 6.07157L18.9679 6.45109ZM18.982 7.39131L20.9784 7.51126V7.51123L18.982 7.39131ZM2.57431 7.75512L0.579207 7.61523L2.57431 7.75512ZM2.51501 8.89481L0.515346 8.85843L2.51501 8.89481ZM2.5987 7.39131L4.5951 7.51124V7.51123L2.5987 7.39131ZM2.5846 6.45109L0.620941 6.83061L0.620941 6.83061L2.5846 6.45109ZM2.50946 6.26503L1.49466 7.98845L1.51554 8.00074L1.5367 8.01252L2.50946 6.26503ZM2.50875 6.26461L1.33735 7.88567L1.41325 7.94052L1.49395 7.98803L2.50875 6.26461ZM1.83068 6.1375L1.86991 4.13789H1.86991L1.83068 6.1375ZM1.17989 6.23153L2.32057 7.87436L2.32592 7.87062L1.17989 6.23153ZM1.17986 6.23156L0.0391785 4.58873L0.033925 4.5924L1.17986 6.23156ZM1.16385 6.2505L-0.574859 5.26212L-0.574864 5.26213L1.16385 6.2505ZM1.11308 6.41085L3.07489 6.7998L3.0749 6.7998L1.11308 6.41085ZM1.0855 7.37836L3.08388 7.298V7.298L1.0855 7.37836ZM1.09823 7.66398L3.09621 7.57407L3.09606 7.57095L1.09823 7.66398ZM1.09823 7.66408L3.09651 7.58081L3.09621 7.57417L1.09823 7.66408ZM1.09823 7.66408L-0.900058 7.74735L-0.899604 7.75711L1.09823 7.66408ZM1.12764 8.90705L3.12731 8.94343L1.12764 8.90705ZM1.05292 10.1473L-0.940163 9.98108L-0.940371 9.98361L1.05292 10.1473ZM1.05291 10.1474L3.04599 10.3137L3.04619 10.3112L1.05291 10.1474ZM1.02998 10.429L3.02407 10.5827L3.02407 10.5827L1.02998 10.429ZM1.02227 11.3853L-0.951857 11.706L-0.951857 11.706L1.02227 11.3853ZM1.06521 11.5398L-0.704257 12.472L-0.704243 12.472L1.06521 11.5398ZM1.07741 11.5552L2.27508 9.95348L2.27408 9.95273L1.07741 11.5552ZM1.07781 11.5555L-0.119857 13.1573L-0.119737 13.1574L1.07781 11.5555ZM1.72995 11.6746L1.76919 9.67498L1.76918 9.67498L1.72995 11.6746ZM2.40248 11.5728L1.34158 9.87736L1.30751 9.89868L1.27432 9.92135L2.40248 11.5728ZM2.4036 11.5721L1.36519 9.86279L1.3539 9.86965L1.3427 9.87665L2.4036 11.5721ZM2.49436 11.3689L0.544164 10.9253L0.544163 10.9253L2.49436 11.3689ZM2.5438 10.4081L4.54326 10.3618V10.3618L2.5438 10.4081ZM2.53261 10.0369L0.533715 10.1033V10.1033L2.53261 10.0369ZM7.89288 16.4891C9.22327 17.2042 10.8237 17.2042 12.1541 16.4891L10.2602 12.9658C10.1124 13.0453 9.93458 13.0453 9.78676 12.9658L7.89288 16.4891ZM2.46048 13.5689L7.89288 16.4891L9.78676 12.9658L4.35436 10.0457L2.46048 13.5689ZM1.53235 10.0439C1.54499 10.4239 1.55255 10.6839 1.54343 10.9027C1.53421 11.1242 1.51072 11.1716 1.52422 11.1338L5.29062 12.4808C5.61707 11.5679 5.54926 10.486 5.53014 9.91094L1.53235 10.0439ZM1.51515 8.87805C1.50738 9.30553 1.52133 9.71268 1.53235 10.0439L5.53014 9.91094C5.51867 9.56627 5.50888 9.25953 5.51449 8.95081L1.51515 8.87805ZM1.57495 7.71385C1.55186 8.04292 1.52296 8.44898 1.51515 8.87805L5.51449 8.95081C5.52012 8.64128 5.54114 8.33591 5.56514 7.9938L1.57495 7.71385ZM1.63679 6.73384C1.5809 6.61417 1.60972 6.58922 1.61573 6.807C1.62163 7.02134 1.60483 7.28792 1.57495 7.71385L5.56514 7.9938C5.59132 7.62067 5.62657 7.14525 5.61421 6.69679C5.60194 6.25177 5.54217 5.64322 5.26103 5.04125L1.63679 6.73384ZM1.44891 4.36573V5.88754H5.44891V4.36573H1.44891ZM5.04048 -0.0416205C2.94931 0.389409 1.44891 2.2306 1.44891 4.36573H5.44891C5.44891 4.1285 5.61563 3.92392 5.84798 3.87602L5.04048 -0.0416205ZM9.11506 -0.881471L5.04048 -0.0416204L5.84798 3.87602L9.92256 3.03617L9.11506 -0.881471ZM10.9319 -0.881472C10.3326 -1.005 9.71438 -1.005 9.11505 -0.88147L9.92256 3.03617C9.98915 3.02245 10.0578 3.02245 10.1244 3.03617L10.9319 -0.881472ZM15.0065 -0.0416193L10.9319 -0.881472L10.1244 3.03617L14.199 3.87602L15.0065 -0.0416193ZM18.5981 4.36573C18.5981 2.2306 17.0977 0.38941 15.0065 -0.0416196L14.199 3.87603C14.4314 3.92392 14.5981 4.1285 14.5981 4.36573H18.5981ZM18.5981 5.92398V4.36573H14.5981V5.92398H18.5981ZM18.4813 7.63488C18.4636 7.25378 18.4533 7.00385 18.4606 6.79755C18.4679 6.58764 18.4915 6.5731 18.4628 6.64708L14.7334 5.20089C14.5275 5.73168 14.477 6.25904 14.463 6.65678C14.4489 7.05811 14.4698 7.48156 14.4856 7.82023L18.4813 7.63488ZM18.4834 7.72758V7.72756H14.4834V7.72758H18.4834ZM18.5108 8.92381C18.5195 8.44558 18.4979 7.9928 18.4813 7.6349L14.4856 7.82025C14.5029 8.19438 14.5175 8.52163 14.5115 8.85105L18.5108 8.92381ZM18.4342 10.2106C18.4639 9.85455 18.5021 9.40309 18.5108 8.9238L14.5115 8.85106C14.5055 9.18094 14.479 9.50683 14.448 9.87879L18.4342 10.2106ZM18.3705 11.1535C18.4095 11.2539 18.3845 11.2615 18.3835 11.0546C18.3824 10.8515 18.4016 10.6023 18.4342 10.2106L14.448 9.87879C14.4193 10.2238 14.3814 10.6607 14.3835 11.075C14.3856 11.4855 14.424 12.0419 14.6428 12.6041L18.3705 11.1535ZM12.1541 16.4891L17.4536 13.6404L15.5597 10.1172L10.2602 12.9658L12.1541 16.4891ZM4.44891 5.19599V4.36573H0.448915V5.19599H4.44891ZM4.44891 4.36573C4.44891 3.65402 4.94905 3.04029 5.6461 2.89661L4.8386 -1.02103C2.28273 -0.494217 0.448915 1.75613 0.448915 4.36573H4.44891ZM5.6461 2.89661L9.72068 2.05676L8.91318 -1.86088L4.8386 -1.02103L5.6461 2.89661ZM9.72068 2.05676C9.92046 2.01558 10.1265 2.01558 10.3263 2.05676L11.1338 -1.86088C10.4013 -2.01187 9.64569 -2.01187 8.91318 -1.86088L9.72068 2.05676ZM10.3263 2.05676L14.4009 2.89661L15.2084 -1.02103L11.1338 -1.86088L10.3263 2.05676ZM14.4009 2.89661C15.098 3.04029 15.5981 3.65402 15.5981 4.36573H19.5981C19.5981 1.75613 17.7643 -0.494217 15.2084 -1.02103L14.4009 2.89661ZM15.5981 4.36573V5.17932H19.5981V4.36573H15.5981ZM17.9445 7.14908C17.9719 7.14426 18.049 7.13446 18.1929 7.13728L18.2714 3.13805C17.9309 3.13137 17.588 3.15039 17.2516 3.20955L17.9445 7.14908ZM18.1929 7.13728C18.4987 7.14328 18.5127 7.19257 18.3992 7.13358C18.3332 7.09923 18.2483 7.04045 18.1673 6.95159C18.087 6.86364 18.0379 6.7765 18.0108 6.71305C17.9857 6.65441 17.9834 6.62569 17.987 6.64778C17.9908 6.67063 17.9973 6.72438 17.9994 6.8221C18.0015 6.91933 17.9991 7.03944 17.9915 7.19338C17.9838 7.34862 17.9722 7.51507 17.9582 7.71385L21.9484 7.9938C21.974 7.62941 22.0079 7.16946 21.9984 6.7347C21.989 6.3034 21.9371 5.72119 21.6884 5.13979C21.4128 4.4956 20.9342 3.94325 20.2445 3.58463C19.6123 3.25592 18.9201 3.15078 18.2714 3.13805L18.1929 7.13728ZM17.9582 7.71385C17.9352 8.04292 17.9063 8.44898 17.8985 8.87805L21.8978 8.9508C21.9034 8.64128 21.9244 8.3359 21.9484 7.9938L17.9582 7.71385ZM17.8985 8.87805C17.8907 9.30553 17.9046 9.71268 17.9156 10.0439L21.9134 9.91094C21.902 9.56627 21.8922 9.25953 21.8978 8.95081L17.8985 8.87805ZM17.9156 10.0439C17.9295 10.461 17.9369 10.732 17.9242 10.9533C17.9184 11.0547 17.9097 11.1129 17.9042 11.1406C17.8988 11.1678 17.9005 11.1445 17.9249 11.0917C17.9514 11.0344 18.0002 10.9517 18.0811 10.8674C18.1632 10.7819 18.2497 10.7246 18.3195 10.6907C18.4415 10.6315 18.4336 10.6807 18.1343 10.6748L18.0558 14.674C18.7118 14.6869 19.4155 14.6049 20.0658 14.2894C20.7732 13.9461 21.2648 13.4004 21.5568 12.7679C21.8208 12.1958 21.8929 11.6157 21.9177 11.182C21.9428 10.7443 21.9257 10.2802 21.9134 9.91094L17.9156 10.0439ZM18.1343 10.6748C18.0435 10.673 17.9778 10.6674 17.9331 10.6615C17.8883 10.6557 17.8699 10.6503 17.8719 10.6509L16.777 14.4981C17.196 14.6173 17.6295 14.6657 18.0558 14.674L18.1343 10.6748ZM16.3775 10.8129L10.7337 13.8466L12.6276 17.3699L18.2714 14.3361L16.3775 10.8129ZM10.7337 13.8466C10.2902 14.085 9.75676 14.085 9.31329 13.8466L7.41941 17.3699C9.04545 18.2439 11.0015 18.2439 12.6276 17.3699L10.7337 13.8466ZM9.31329 13.8466L3.65912 10.8073L1.76524 14.3305L7.4194 17.3699L9.31329 13.8466ZM4.4738 13.5158L4.49871 13.4695L0.975464 11.5756L0.950557 11.622L4.4738 13.5158ZM1.96734 10.6766C2.01451 10.657 2.02904 10.6587 1.99268 10.6642C1.95558 10.6698 1.87878 10.6773 1.751 10.6748L1.67252 14.674C2.27362 14.6858 2.90877 14.6179 3.50683 14.3685L1.96734 10.6766ZM1.751 10.6748C1.45112 10.6689 1.44431 10.621 1.56462 10.6832C1.63482 10.7194 1.72495 10.7815 1.8112 10.8761C1.89679 10.9699 1.94984 11.0641 1.97987 11.1355C2.00777 11.2017 2.01159 11.2379 2.00919 11.2225C2.00666 11.2063 2.00116 11.1589 2.00025 11.0671C1.99935 10.9758 2.00307 10.8616 2.01229 10.7135C2.02159 10.564 2.03487 10.4035 2.05093 10.2106L-1.93528 9.87879C-1.9646 10.231 -2.00375 10.6807 -1.99955 11.1065C-1.9954 11.5283 -1.9512 12.1068 -1.70677 12.6875C-1.43473 13.3337 -0.956377 13.8831 -0.270883 14.2372C0.35445 14.5601 1.03752 14.6616 1.67252 14.674L1.751 10.6748ZM2.05093 10.2106C2.08057 9.85455 2.11878 9.40309 2.1275 8.92381L-1.87184 8.85106C-1.87784 9.18094 -1.90433 9.50683 -1.93528 9.87879L2.05093 10.2106ZM2.1275 8.92381C2.1362 8.44557 2.11456 7.9928 2.09796 7.6349L-1.89774 7.82025C-1.88039 8.19439 -1.86585 8.52163 -1.87184 8.85106L2.1275 8.92381ZM2.09796 7.6349C2.08894 7.44054 2.08149 7.27828 2.07762 7.12709C2.07378 6.97719 2.07419 6.86107 2.07846 6.76777C2.08275 6.67392 2.09012 6.62429 2.09371 6.60548C2.09717 6.58736 2.0929 6.62063 2.06407 6.68341C2.033 6.75107 1.97817 6.84229 1.89026 6.93289C1.80144 7.02444 1.7089 7.08431 1.63562 7.11916C1.50904 7.17937 1.51303 7.13146 1.80963 7.13728L1.8881 3.13805C1.2494 3.12552 0.558325 3.20214 -0.0825332 3.50697C-0.784236 3.84073 -1.27911 4.37861 -1.57094 5.01408C-1.83333 5.58543 -1.89802 6.16206 -1.91736 6.58496C-1.93691 7.01214 -1.91423 7.46477 -1.89774 7.82025L2.09796 7.6349ZM1.80962 7.13728C1.94602 7.13996 2.02671 7.15131 2.06491 7.15878L2.83292 3.2332C2.52292 3.17255 2.20578 3.14429 1.8881 3.13805L1.80962 7.13728ZM20.9576 7.75516V7.75512H16.9576V7.75516H20.9576ZM20.898 8.93118C20.9041 8.59411 20.9281 8.24594 20.9527 7.89506L16.9625 7.61525C16.9389 7.95207 16.907 8.40153 16.8986 8.85844L20.898 8.93118ZM20.9148 9.97042C20.9031 9.61666 20.8919 9.26715 20.898 8.9312L16.8986 8.85842C16.8904 9.31341 16.9058 9.76398 16.917 10.1032L20.9148 9.97042ZM20.9159 10.0369V10.0368H16.9159V10.0369H20.9159ZM20.9159 10.0369V10.0369H16.9159V10.0369H20.9159ZM20.9147 9.96599L20.9146 9.96551L16.9172 10.1083L16.9172 10.1088L20.9147 9.96599ZM20.9266 10.3618C20.9237 10.2362 20.9191 10.101 20.9148 9.97099L16.917 10.1038C16.9215 10.2388 16.9253 10.3528 16.9276 10.4544L20.9266 10.3618ZM20.8279 11.8124C20.9364 11.3351 20.937 10.8125 20.9266 10.3618L16.9276 10.4544C16.9324 10.6581 16.931 10.7923 16.9266 10.8817C16.9221 10.9746 16.9161 10.9754 16.9275 10.9253L20.8279 11.8124ZM19.8253 13.2814C20.5091 12.866 20.738 12.2076 20.8279 11.8124L16.9275 10.9253C16.9341 10.8963 16.9719 10.7339 17.0927 10.5264C17.1573 10.4154 17.2511 10.2822 17.3842 10.1489C17.4513 10.0818 17.5225 10.0204 17.5969 9.96503C17.6335 9.93775 17.6673 9.91457 17.6968 9.89531C17.7113 9.88589 17.7237 9.87805 17.7333 9.87215C17.742 9.8667 17.7493 9.8623 17.7485 9.86276L19.8253 13.2814ZM19.846 13.2686L19.8472 13.2679L17.7267 9.87625L17.7255 9.87696L19.846 13.2686ZM18.074 13.6742C18.7607 13.6877 19.3988 13.5762 19.914 13.2242L17.6576 9.92136C17.8882 9.76386 18.0836 9.70574 18.1722 9.68562C18.2606 9.66554 18.2682 9.67725 18.1525 9.67498L18.074 13.6742ZM16.2636 13.1574C16.761 13.5292 17.3935 13.6609 18.074 13.6742L18.1525 9.67498C18.0317 9.67261 18.0389 9.66085 18.1281 9.68458C18.2126 9.70706 18.4186 9.77421 18.6587 9.9537L16.2636 13.1574ZM16.2655 13.1588L16.2659 13.1591L18.6563 9.95194L18.6559 9.95164L16.2655 13.1588ZM15.6791 12.4721C15.6914 12.4955 15.7738 12.6568 15.9182 12.8302C16.0017 12.9304 16.0855 13.0113 16.161 13.0756C16.1946 13.1042 16.2226 13.1261 16.2387 13.1385C16.2469 13.1449 16.2536 13.1499 16.2575 13.1528C16.2595 13.1543 16.2611 13.1555 16.2621 13.1563C16.263 13.157 16.2638 13.1576 16.2639 13.1576L18.6575 9.95286C18.6391 9.93909 18.8218 10.0662 18.9914 10.2698C19.1324 10.4391 19.2111 10.5946 19.2179 10.6075L15.6791 12.4721ZM15.4314 11.706C15.4716 11.9533 15.5447 12.217 15.679 12.4719L19.218 10.6077C19.3348 10.8294 19.3698 11.004 19.3797 11.0647L15.4314 11.706ZM15.4192 10.2753C15.3854 10.7139 15.3544 11.2314 15.4314 11.706L19.3797 11.0647C19.3883 11.1179 19.3824 11.1186 19.3835 11.0224C19.3845 10.93 19.3912 10.7927 19.4074 10.5827L15.4192 10.2753ZM15.4431 9.98106C15.435 10.0786 15.4266 10.1794 15.4192 10.2753L19.4074 10.5827C19.4136 10.5017 19.4209 10.414 19.4293 10.3136L15.4431 9.98106ZM15.4426 9.98778L15.4426 9.98785L19.4298 10.3068L19.4299 10.3068L15.4426 9.98778ZM15.4634 9.81844L15.4634 9.81847L19.409 10.4761L19.409 10.476L15.4634 9.81844ZM15.5113 8.87068C15.5046 9.2365 15.4744 9.60606 15.4432 9.98099L19.4293 10.3135C19.4593 9.95363 19.5012 9.45874 19.5106 8.94343L15.5113 8.87068ZM15.4837 7.75711C15.5013 8.13439 15.5179 8.50544 15.5113 8.87067L19.5106 8.94343C19.52 8.42928 19.4962 7.93291 19.4794 7.57104L15.4837 7.75711ZM15.4839 7.76105L15.4839 7.76152L19.4792 7.56663L19.4791 7.56616L15.4839 7.76105ZM15.4704 7.45872C15.4743 7.55582 15.4791 7.65785 15.4837 7.75664L19.4793 7.57057C19.4746 7.46899 19.4705 7.38009 19.4672 7.29799L15.4704 7.45872ZM15.5346 6.0219C15.4407 6.4955 15.4526 7.0161 15.4704 7.45871L19.4672 7.298C19.4587 7.08637 19.457 6.94688 19.4593 6.85211C19.4618 6.75367 19.4679 6.75093 19.4582 6.79981L15.5346 6.0219ZM15.8084 5.26214C15.6656 5.51344 15.5834 5.77547 15.5346 6.0219L19.4582 6.7998C19.4471 6.85573 19.4076 7.02477 19.2859 7.23886L15.8084 5.26214ZM16.4172 4.5924C16.4172 4.59243 16.4162 4.59308 16.4152 4.59382C16.4141 4.59461 16.4122 4.59589 16.41 4.59745C16.4057 4.60047 16.3985 4.60557 16.3897 4.61195C16.3721 4.62465 16.3437 4.6456 16.3097 4.67278C16.2348 4.73274 16.1532 4.80672 16.0715 4.89714C15.9236 5.06098 15.8364 5.2129 15.8085 5.26208L19.2858 7.23891C19.2652 7.27523 19.1832 7.41969 19.04 7.57827C18.8728 7.76335 18.701 7.87637 18.7091 7.87071L16.4172 4.5924ZM16.3959 4.6075L16.3959 4.60753L18.7304 7.85559L18.7305 7.85557L16.3959 4.6075ZM18.2532 4.13789C17.5701 4.12448 16.9301 4.23384 16.4172 4.59242L18.7092 7.87065C18.4629 8.04284 18.2528 8.10452 18.1617 8.12532C18.0675 8.14681 18.0569 8.1348 18.1747 8.13712L18.2532 4.13789ZM20.0635 4.64357C19.5639 4.28256 18.9348 4.15126 18.2532 4.13789L18.1747 8.13712C18.296 8.1395 18.295 8.15125 18.2144 8.13017C18.1362 8.10972 17.946 8.0485 17.7206 7.88566L20.0635 4.64357ZM19.9068 4.54116L19.9061 4.54074L17.878 7.98848L17.8787 7.9889L19.9068 4.54116ZM20.9316 6.07157C20.8691 5.74824 20.6701 4.96543 19.8655 4.51754L17.92 8.01252C17.9205 8.01282 17.9102 8.00709 17.8977 7.99989C17.8842 7.99219 17.8676 7.98241 17.8486 7.97077C17.8099 7.94705 17.7677 7.91933 17.7233 7.88715C17.6336 7.82219 17.5512 7.7509 17.4764 7.6748C17.3287 7.5246 17.2298 7.37502 17.165 7.2562C17.0441 7.03449 17.01 6.86053 17.0042 6.83061L20.9316 6.07157ZM20.9784 7.51123C21.0051 7.06679 21.0238 6.54861 20.9316 6.07158L17.0042 6.8306C16.993 6.77246 16.9988 6.76652 16.9999 6.85523C17.001 6.9401 16.9977 7.07045 16.9856 7.2714L20.9784 7.51123ZM20.9527 7.895C20.9617 7.76732 20.971 7.63449 20.9784 7.51126L16.9856 7.27137C16.9796 7.37081 16.9718 7.48256 16.9625 7.61524L20.9527 7.895ZM0.579207 7.61523C0.555593 7.95203 0.523658 8.40151 0.515346 8.85843L4.51468 8.93119C4.52082 8.5941 4.54481 8.24593 4.56941 7.895L0.579207 7.61523ZM0.602297 7.27139C0.596325 7.37081 0.58851 7.48255 0.579207 7.61523L4.56941 7.895C4.57836 7.76734 4.5877 7.63449 4.5951 7.51124L0.602297 7.27139ZM0.620941 6.83061C0.609704 6.77246 0.615456 6.76652 0.616601 6.85523C0.617696 6.9401 0.614367 7.07045 0.602297 7.27139L4.5951 7.51123C4.6218 7.06679 4.64046 6.54861 4.54826 6.07157L0.620941 6.83061ZM1.5367 8.01252C1.53723 8.01282 1.5269 8.00709 1.51435 7.99989C1.50095 7.99219 1.48428 7.98241 1.46529 7.97077C1.42663 7.94705 1.38443 7.91933 1.34001 7.88716C1.25032 7.8222 1.16787 7.75091 1.09307 7.67481C0.945428 7.52461 0.846491 7.37503 0.781699 7.2562C0.6608 7.03449 0.626724 6.86053 0.620941 6.83061L4.54826 6.07157C4.48577 5.74823 4.28682 4.96543 3.48222 4.51754L1.5367 8.01252ZM1.49395 7.98803L1.49466 7.98845L3.52426 4.54161L3.52354 4.54119L1.49395 7.98803ZM1.79144 8.13712C1.9127 8.1395 1.91165 8.15125 1.83107 8.13017C1.7529 8.10972 1.56269 8.0485 1.33735 7.88567L3.68015 4.64356C3.18058 4.28256 2.55152 4.15126 1.86991 4.13789L1.79144 8.13712ZM2.32592 7.87062C2.07962 8.04284 1.86943 8.10453 1.77836 8.12532C1.68424 8.14681 1.67362 8.1348 1.79144 8.13712L1.86991 4.13789C1.1868 4.12448 0.546769 4.23383 0.0338583 4.59245L2.32592 7.87062ZM2.32054 7.87438L2.32057 7.87436L0.0392159 4.58871L0.0391843 4.58874L2.32054 7.87438ZM2.90256 7.23887C2.88192 7.27518 2.79993 7.41964 2.6567 7.57823C2.48953 7.76333 2.31773 7.87635 2.32579 7.87071L0.033925 4.5924C0.0338781 4.59243 0.0329449 4.59309 0.0318915 4.59382C0.0307571 4.59462 0.0289408 4.59589 0.0267301 4.59745C0.0224355 4.60048 0.0152283 4.60558 0.00639861 4.61196C-0.0111842 4.62466 -0.0396228 4.64562 -0.0735894 4.6728C-0.148537 4.73277 -0.230127 4.80675 -0.311802 4.89718C-0.459781 5.06103 -0.546911 5.21295 -0.574859 5.26212L2.90256 7.23887ZM3.0749 6.7998C3.06381 6.85574 3.02426 7.02479 2.90256 7.23887L-0.574864 5.26213C-0.717717 5.51343 -0.799876 5.77546 -0.848736 6.02191L3.0749 6.7998ZM3.08388 7.298C3.07537 7.08637 3.07367 6.94688 3.07605 6.85211C3.07851 6.75367 3.08458 6.75093 3.07489 6.7998L-0.848735 6.0219C-0.942631 6.4955 -0.930687 7.01609 -0.912888 7.45872L3.08388 7.298ZM3.09606 7.57095C3.09132 7.4692 3.08719 7.38019 3.08388 7.298L-0.912888 7.45872C-0.908979 7.55594 -0.904213 7.65812 -0.899608 7.75701L3.09606 7.57095ZM3.09621 7.57417L3.0962 7.57407L-0.899751 7.75389L-0.899747 7.75398L3.09621 7.57417ZM3.0965 7.58082L3.0965 7.58081L-0.900035 7.74734L-0.900034 7.74734L3.0965 7.58082ZM3.12731 8.94343C3.13666 8.42928 3.11292 7.93291 3.09607 7.57105L-0.899604 7.75711C-0.882035 8.1344 -0.865387 8.50544 -0.872031 8.87068L3.12731 8.94343ZM3.04599 10.3136C3.07601 9.95373 3.11793 9.4588 3.12731 8.94343L-0.872031 8.87068C-0.878687 9.23654 -0.908884 9.60612 -0.940162 9.98108L3.04599 10.3136ZM3.04619 10.3112L3.0462 10.3111L-0.940371 9.98361L-0.940379 9.98371L3.04619 10.3112ZM3.02407 10.5827C3.03031 10.5017 3.03761 10.4141 3.04599 10.3137L-0.94017 9.98118C-0.948304 10.0787 -0.956717 10.1795 -0.964107 10.2753L3.02407 10.5827ZM2.9964 11.0647C3.00504 11.1179 2.99909 11.1186 3.00018 11.0224C3.00123 10.93 3.00789 10.7927 3.02407 10.5827L-0.964107 10.2753C-0.997903 10.7139 -1.02894 11.2314 -0.951857 11.706L2.9964 11.0647ZM2.83468 10.6076C2.95154 10.8294 2.98655 11.004 2.9964 11.0647L-0.951857 11.706C-0.911696 11.9532 -0.838604 12.217 -0.704257 12.472L2.83468 10.6076ZM2.27408 9.95273C2.25575 9.93905 2.43847 10.0662 2.60816 10.2699C2.74917 10.4392 2.82788 10.5947 2.83467 10.6076L-0.704243 12.472C-0.691964 12.4953 -0.609626 12.6567 -0.465134 12.8302C-0.381639 12.9304 -0.297788 13.0113 -0.222236 13.0756C-0.18862 13.1043 -0.160652 13.1262 -0.144483 13.1386C-0.136238 13.145 -0.129539 13.15 -0.125695 13.1529C-0.123696 13.1544 -0.122059 13.1556 -0.121055 13.1564C-0.120122 13.1571 -0.119293 13.1577 -0.119261 13.1577L2.27408 9.95273ZM2.27549 9.95379L2.27508 9.95348L-0.120263 13.157L-0.119857 13.1573L2.27549 9.95379ZM1.76918 9.67498C1.64839 9.67261 1.65558 9.66085 1.74482 9.68458C1.82933 9.70705 2.03529 9.77421 2.27537 9.9537L-0.119737 13.1574C0.377658 13.5292 1.01022 13.6609 1.69071 13.6742L1.76918 9.67498ZM1.27432 9.92135C1.50486 9.76386 1.70034 9.70575 1.78892 9.68562C1.87733 9.66554 1.88488 9.67725 1.76919 9.67498L1.69071 13.6742C2.37745 13.6877 3.01548 13.5762 3.53063 13.2242L1.27432 9.92135ZM1.3427 9.87665L1.34158 9.87736L3.46338 13.2682L3.4645 13.2675L1.3427 9.87665ZM0.544163 10.9253C0.550753 10.8963 0.588558 10.7339 0.709383 10.5264C0.774043 10.4154 0.867804 10.2822 1.00093 10.1489C1.068 10.0818 1.13924 10.0204 1.21356 9.96504C1.25017 9.93776 1.28397 9.91458 1.31351 9.89533C1.32797 9.8859 1.34041 9.87807 1.34992 9.87216C1.3587 9.86672 1.36597 9.86232 1.36519 9.86279L3.44202 13.2814C4.12581 12.866 4.35468 12.2076 4.44456 11.8124L0.544163 10.9253ZM0.544336 10.4544C0.549055 10.6581 0.547686 10.7923 0.543313 10.8817C0.538766 10.9746 0.532764 10.9754 0.544164 10.9253L4.44456 11.8124C4.55311 11.3351 4.55371 10.8125 4.54326 10.3618L0.544336 10.4544ZM0.533715 10.1033C0.538205 10.2385 0.541979 10.3527 0.544336 10.4544L4.54326 10.3618C4.54035 10.2361 4.53583 10.1007 4.53151 9.97051L0.533715 10.1033ZM0.515346 8.85843C0.507068 9.31345 0.52245 9.76404 0.533715 10.1033L4.53151 9.97051C4.51976 9.61673 4.50857 9.26718 4.51468 8.93119L0.515346 8.85843Z" fill="#ECEFF2" mask="url(#path-5-inside-1_5661_2110)"/>
</svg>
