<svg width="25" height="24" viewBox="0 0 25 24" fill="none" xmlns="http://www.w3.org/2000/svg">
<path d="M15.1287 9.28774C16.0262 10.1866 17.7239 9.94372 18.9205 8.74522C20.1172 7.54672 20.3598 5.84646 19.4622 4.94758C18.5647 4.04871 16.8671 4.2916 15.6704 5.4901C14.4737 6.6886 14.2312 8.38886 15.1287 9.28774Z" fill="white"/>
<path d="M24.2168 4.96617C23.6728 7.2672 22.2152 10.4053 18.7558 14.293L18.397 17.9054C18.301 18.7712 17.9136 19.5784 17.2986 20.1944L13.7251 23.7733C13.4919 24.0068 13.1357 24.0647 12.8408 23.917C12.5459 23.7693 12.3784 23.4492 12.425 23.1223L12.8313 20.2737C12.8913 19.8531 12.8107 19.3839 12.6333 18.8394C12.5195 18.49 12.3935 18.1813 12.2601 17.8542C12.2197 17.7553 12.1787 17.6547 12.1371 17.5508C10.9143 17.2551 9.77025 16.5574 8.84982 15.6355C7.92921 14.7135 7.23248 13.5675 6.93731 12.3425C6.83298 12.3007 6.73203 12.2594 6.63277 12.2188C6.3069 12.0857 5.99935 11.96 5.65081 11.8462C5.10709 11.6686 4.63853 11.5879 4.2187 11.648L1.37443 12.0549C1.048 12.1016 0.728366 11.9339 0.580901 11.6385C0.433437 11.3431 0.491228 10.9864 0.724391 10.7529L4.29789 7.17392C4.91291 6.55797 5.71893 6.16998 6.58337 6.07379L6.59247 6.07283L10.1927 5.71574C14.0071 2.32452 17.1304 0.871229 19.435 0.309815C20.7708 -0.0156069 21.8203 -0.0384157 22.5547 0.0284452C22.9212 0.0618129 23.2073 0.11734 23.4096 0.16766C23.5106 0.192809 23.5907 0.216633 23.6493 0.235695C23.9262 0.325818 24.0676 0.431363 24.1762 0.677014L24.1769 0.678677C24.1923 0.714032 24.2063 0.750184 24.2194 0.786442C24.2406 0.844592 24.267 0.923787 24.2951 1.02373C24.3513 1.22372 24.4142 1.50629 24.4553 1.86892C24.5377 2.5958 24.5315 3.63538 24.2168 4.96617ZM16.9753 16.178L17.0348 16.1183L16.8738 17.7401C16.8154 18.258 16.5832 18.7408 16.2152 19.1093L14.2668 21.0607L14.3481 20.4907C14.4564 19.7311 14.2971 18.9995 14.0898 18.3634C14.0187 18.1451 13.9327 17.9143 13.8438 17.6866C14.9506 17.5896 16.0374 17.1173 16.9753 16.178ZM8.30813 7.49774C7.3704 8.43689 6.89881 9.5253 6.80192 10.6337C6.57432 10.5446 6.34368 10.4585 6.1258 10.3873C5.49077 10.1799 4.76032 10.0204 4.00202 10.1289L3.43287 10.2103L5.38128 8.25896C5.7493 7.89038 6.2313 7.65785 6.74838 7.59935L8.36708 7.4388L8.30813 7.49774ZM22.416 1.55662C21.8469 1.5048 20.9666 1.5159 19.7971 1.80082C17.4599 2.37019 13.9224 4.045 9.39152 8.58278C8.46216 9.51355 8.19357 10.5937 8.36212 11.6592C8.52242 12.6725 9.08657 13.7026 9.93322 14.5505C10.7796 15.3982 11.8078 15.9631 12.8193 16.1238C13.8835 16.2929 14.9623 16.024 15.8919 15.093C20.5099 10.4679 22.1788 6.92641 22.7259 4.61258C22.9995 3.45541 22.9955 2.59405 22.9329 2.04198C22.9137 1.87236 22.8888 1.73105 22.8644 1.61849C22.7458 1.59579 22.5961 1.57302 22.416 1.55662Z" fill="white"/>
<path d="M11.0133 18.2062C10.0436 17.693 9.12017 16.9913 8.30813 16.1781C7.44635 15.315 6.71014 14.3263 6.19105 13.2898C4.53818 14.7776 3.2434 20.871 3.43288 21.0607C3.62064 21.2488 9.33576 19.7162 11.0133 18.2062Z" fill="white"/>
</svg>
