<svg width="25" height="24" viewBox="0 0 25 24" fill="none" xmlns="http://www.w3.org/2000/svg">
<path d="M12.5 22.5C18.299 22.5 23 17.799 23 12C23 6.20101 18.299 1.5 12.5 1.5C6.70101 1.5 2 6.20101 2 12C2 17.799 6.70101 22.5 12.5 22.5ZM12.5 24C5.87258 24 0.5 18.6274 0.5 12C0.5 5.37258 5.87258 0 12.5 0C19.1274 0 24.5 5.37258 24.5 12C24.5 18.6274 19.1274 24 12.5 24Z" fill="white"/>
<path d="M7.46967 6.96967C7.76256 6.67678 8.23744 6.67678 8.53033 6.96967L17.5303 15.9697C17.8232 16.2626 17.8232 16.7374 17.5303 17.0303C17.2374 17.3232 16.7626 17.3232 16.4697 17.0303L7.46967 8.03033C7.17677 7.73744 7.17677 7.26256 7.46967 6.96967Z" fill="white"/>
<path fill-rule="evenodd" clip-rule="evenodd" d="M1.5 12C1.5 18.0751 6.42487 23 12.5 23C15.3577 23 17.9608 21.9103 19.9166 20.1237L4.37626 4.58337C2.58971 6.53915 1.5 9.14232 1.5 12ZM20.6237 19.4166L5.08337 3.87626C7.03915 2.08971 9.64232 1 12.5 1C18.5751 1 23.5 5.92487 23.5 12C23.5 14.8577 22.4103 17.4608 20.6237 19.4166ZM0.5 12C0.5 18.6274 5.87258 24 12.5 24C19.1274 24 24.5 18.6274 24.5 12C24.5 5.37258 19.1274 0 12.5 0C5.87258 0 0.5 5.37258 0.5 12Z" fill="white"/>
<path fill-rule="evenodd" clip-rule="evenodd" d="M2 12C2 17.799 6.70101 22.5 12.5 22.5C15.1296 22.5 17.5334 21.5334 19.3754 19.9361L4.5639 5.12456C2.96661 6.96665 2 9.37044 2 12ZM20.4361 18.8754L5.62456 4.0639C7.46665 2.46661 9.87044 1.5 12.5 1.5C18.299 1.5 23 6.20101 23 12C23 14.6296 22.0334 17.0334 20.4361 18.8754ZM0.5 12C0.5 18.6274 5.87258 24 12.5 24C19.1274 24 24.5 18.6274 24.5 12C24.5 5.37258 19.1274 0 12.5 0C5.87258 0 0.5 5.37258 0.5 12Z" fill="white"/>
</svg>
