<svg width="26" height="25" viewBox="0 0 26 25" fill="none" xmlns="http://www.w3.org/2000/svg">
<path d="M20.102 24.998C19.793 24.998 19.4856 24.9027 19.221 24.7129L13.0002 20.2289L6.7793 24.7129C6.52156 24.8993 6.21182 24.999 5.89431 24.9979C5.5768 24.9968 5.26775 24.8949 5.0113 24.7067C4.75461 24.5197 4.56315 24.256 4.46417 23.9533C4.36518 23.6505 4.3637 23.3241 4.45995 23.0204L6.78006 15.4944L0.615025 11.128C0.359523 10.9384 0.169773 10.673 0.0726137 10.3691C-0.0245454 10.0653 -0.0241952 9.73839 0.073615 9.43475C0.172197 9.13184 0.362999 8.86772 0.619054 8.67974C0.87511 8.49175 1.18347 8.3894 1.50055 8.38715L9.13611 8.37562L11.5671 1.0363C11.6674 0.733951 11.8598 0.470989 12.1171 0.284652C12.3744 0.0983153 12.6834 -0.00195312 13.0005 -0.00195312C13.3176 -0.00195312 13.6267 0.0983153 13.884 0.284652C14.1412 0.470989 14.3337 0.733951 14.434 1.0363L16.8237 8.37562L24.4982 8.38715C24.8157 8.38895 25.1245 8.49125 25.3808 8.67952C25.6371 8.86778 25.8279 9.13244 25.926 9.4359C26.0242 9.73935 26.0247 10.0662 25.9275 10.3699C25.8302 10.6737 25.6403 10.9389 25.3845 11.128L19.2195 15.4944L21.5396 23.0204C21.636 23.324 21.6347 23.6504 21.5359 23.9532C21.437 24.256 21.2457 24.5197 20.989 24.7067C20.7318 24.8964 20.421 24.9985 20.102 24.998Z" fill="#FFAC33"/>
</svg>
