<svg width="24" height="24" viewBox="0 0 24 24" fill="none" xmlns="http://www.w3.org/2000/svg">
<path fill-rule="evenodd" clip-rule="evenodd" d="M0 -0.00195312H1.5V22.498H24V23.998H0V-0.00195312ZM22.2249 4.66758C22.5455 4.92987 22.5928 5.40239 22.3305 5.72298L15.5805 13.973C15.4463 14.137 15.249 14.2366 15.0374 14.2471C14.8257 14.2577 14.6195 14.1782 14.4697 14.0284L10.5903 10.149L5.10655 17.6892C4.86292 18.0242 4.39386 18.0982 4.05887 17.8546C3.72388 17.611 3.64982 17.1419 3.89345 16.8069L9.89345 8.55692C10.0225 8.37953 10.2227 8.2675 10.4413 8.25035C10.66 8.23319 10.8752 8.31262 11.0303 8.46772L14.9443 12.3817L21.1695 4.77312C21.4318 4.45253 21.9043 4.40528 22.2249 4.66758Z" fill="white"/>
</svg>
