<svg width="24" height="24" viewBox="0 0 24 24" fill="none" xmlns="http://www.w3.org/2000/svg">
<g opacity="0.7" clip-path="url(#clip0_5214_2664)">
<g clip-path="url(#clip1_5214_2664)">
<path d="M16.3548 0.195312H12.5027V15.2353C12.5027 17.0274 11.0211 18.4994 9.17739 18.4994C7.33366 18.4994 5.85209 17.0274 5.85209 15.2353C5.85209 13.4753 7.30073 12.0353 9.07864 11.9713V8.19533C5.16069 8.25929 2 11.3633 2 15.2353C2 19.1393 5.22653 22.2753 9.21033 22.2753C13.1941 22.2753 16.4206 19.1073 16.4206 15.2353V7.52329C17.8692 8.54732 19.6471 9.15532 21.5238 9.18734V5.41132C18.6266 5.31531 16.3548 3.01131 16.3548 0.195312Z" fill="#131337"/>
</g>
</g>
<defs>
<clipPath id="clip0_5214_2664">
<rect width="20" height="23" fill="white" transform="translate(2)"/>
</clipPath>
<clipPath id="clip1_5214_2664">
<rect width="20" height="23" fill="white" transform="translate(2)"/>
</clipPath>
</defs>
</svg>
