<svg width="24" height="24" viewBox="0 0 24 24" fill="none" xmlns="http://www.w3.org/2000/svg">
<g opacity="0.7">
<g clip-path="url(#clip0_5214_2654)">
<g clip-path="url(#clip1_5214_2654)">
<path d="M7.55 21.9627C16.605 21.9627 21.558 14.4587 21.558 7.95467C21.558 7.74367 21.554 7.52767 21.544 7.31667C22.508 6.61967 23.34 5.75667 24 4.76767C23.102 5.16667 22.15 5.42767 21.174 5.54067C22.201 4.92567 22.971 3.95767 23.339 2.81767C22.373 3.39067 21.316 3.79467 20.213 4.01267C19.471 3.22367 18.489 2.70167 17.42 2.52667C16.35 2.35167 15.253 2.53367 14.298 3.04467C13.342 3.55567 12.582 4.36667 12.134 5.35367C11.686 6.34067 11.575 7.44667 11.819 8.50267C9.862 8.40467 7.948 7.89567 6.2 7.01067C4.452 6.12467 2.91 4.88167 1.673 3.36167C1.044 4.44567 0.852 5.72767 1.135 6.94867C1.418 8.16867 2.155 9.23567 3.196 9.93267C2.415 9.90767 1.65 9.69667 0.966 9.31867V9.37967C0.965 10.5167 1.358 11.6187 2.078 12.4987C2.799 13.3797 3.801 13.9827 4.916 14.2077C4.192 14.4057 3.432 14.4347 2.695 14.2917C3.009 15.2697 3.622 16.1257 4.446 16.7387C5.27 17.3517 6.265 17.6927 7.292 17.7137C5.548 19.0837 3.394 19.8267 1.177 19.8227C0.783 19.8227 0.39 19.7987 0 19.7507C2.253 21.1957 4.874 21.9637 7.55 21.9627Z" fill="#131337"/>
</g>
</g>
</g>
<defs>
<clipPath id="clip0_5214_2654">
<rect width="24" height="20" fill="white" transform="translate(0 2)"/>
</clipPath>
<clipPath id="clip1_5214_2654">
<rect width="24" height="20" fill="white" transform="translate(0 2)"/>
</clipPath>
</defs>
</svg>
