<svg width="24" height="24" viewBox="0 0 24 24" fill="none" xmlns="http://www.w3.org/2000/svg">
<g opacity="0.7" clip-path="url(#clip0_5214_2669)">
<g clip-path="url(#clip1_5214_2669)">
<path d="M23.7609 7.16739C23.7609 7.16739 23.5266 5.60462 22.8047 4.91843C21.8906 4.0153 20.8688 4.01087 20.4 3.95775C17.0438 3.72754 12.0047 3.72754 12.0047 3.72754H11.9953C11.9953 3.72754 6.95625 3.72754 3.6 3.95775C3.13125 4.01087 2.10938 4.0153 1.19531 4.91843C0.473438 5.60462 0.24375 7.16739 0.24375 7.16739C0.24375 7.16739 0 9.00462 0 10.8374V12.5551C0 14.3879 0.239062 16.2252 0.239062 16.2252C0.239062 16.2252 0.473437 17.7879 1.19062 18.4742C2.10469 19.3772 3.30469 19.3463 3.83906 19.4436C5.76094 19.6164 12 19.6695 12 19.6695C12 19.6695 17.0438 19.6606 20.4 19.4349C20.8688 19.3817 21.8906 19.3772 22.8047 18.4742C23.5266 17.7879 23.7609 16.2252 23.7609 16.2252C23.7609 16.2252 24 14.3924 24 12.5551V10.8374C24 9.00462 23.7609 7.16739 23.7609 7.16739ZM9.52031 14.6403V8.26972L16.0031 11.4661L9.52031 14.6403Z" fill="#131337"/>
</g>
</g>
<defs>
<clipPath id="clip0_5214_2669">
<rect width="24" height="17" fill="white" transform="translate(0 3)"/>
</clipPath>
<clipPath id="clip1_5214_2669">
<rect width="24" height="17" fill="white" transform="translate(0 3)"/>
</clipPath>
</defs>
</svg>
